<svg xmlns="http://www.w3.org/2000/svg" version="1.1" xmlns:xlink="http://www.w3.org/1999/xlink" xmlns:svgjs="http://svgjs.dev/svgjs" width="100%" height="100%" viewBox="0 0 1000 600"><rect width="1000" height="600" x="0" y="0" fill="#3368c6"/><g><circle r="166.66666666666666" cx="393.57876078287757" cy="415.8008939478421" fill="#ffffff" transform="matrix(0.5508743607314841,0,0,0.5508743607314841,0,70.94594703886298)"/><path d="M303.40838495020336 340.80091320682374L404.9827167358146 340.80091320682374L404.9827167358146 356.7036632097505L364.0899310140029 356.7036632097505L364.0899310140029 490.8009122945805L344.51041738257993 490.8009122945805L344.51041738257993 356.7036632097505L303.40838495020336 356.7036632097505L303.40838495020336 340.80091320682374ZM483.74915706985985 388.98744141118084L452.9898906168305 388.98744141118084L452.9898906168305 458.51713409315016Q452.9898906168305 467.12614161353156 456.6367618581031 470.6833356931336Q460.31352548659936 474.24052977273567 469.34102642811047 474.24052977273567L469.34102642811047 474.24052977273567L483.74915706985985 474.24052977273567L483.74915706985985 490.8009122945805L466.1126486079674 490.8009122945805Q449.7615127966874 490.8009122945805 441.5709986974357 483.2680307142467Q433.4103769854074 475.735149133913 433.4103769854074 458.51713409315016L433.4103769854074 458.51713409315016L433.4103769854074 388.98744141118084L418.10547472695157 388.98744141118084L418.10547472695157 372.8455523104657L433.4103769854074 372.8455523104657L433.4103769854074 343.1624117974839L452.9898906168305 343.1624117974839L452.9898906168305 372.8455523104657L483.74915706985985 372.8455523104657L483.74915706985985 388.98744141118084Z " fill="#3368c6" transform="matrix(0.5508743607314841,0,0,0.5508743607314841,0,70.94594703886298)"/><path d="M643.5787722256007 353.27386176002767L720.3374268540448 353.27386176002767L720.3374268540448 367.66780052010245L661.3276891929111 367.66780052010245L661.3276891929111 413.4470192833479L709.2443537494759 413.4470192833479L709.2443537494759 427.86801431928757L661.3276891929111 427.86801431928757L661.3276891929111 489.0422540496055L643.5787722256007 489.0422540496055L643.5787722256007 353.27386176002767ZM735.1372097520916 435.28143390624336Q735.1372097520916 418.91238700803797 741.7659973389682 406.54766893782335Q748.3947849258448 394.1829508676087 759.9748709959802 387.36476934967857Q771.5820133419803 380.54658783174835 785.7865581710015 380.54658783174835L785.7865581710015 380.54658783174835Q799.8287653448339 380.54658783174835 810.1372064493236 386.5801373495993Q820.472703829678 392.61368686745016 825.5322274163962 401.75870810975334L825.5322274163962 401.75870810975334L825.5322274163962 382.2781894870957L843.47053831476 382.2781894870957L843.47053831476 489.0422540496055L825.5322274163962 489.0422540496055L825.5322274163962 469.1829475648407Q820.2833098986245 478.51736273819745 809.8666436906756 484.65913735950755Q799.4229212068618 490.80091198081766 785.5971642399479 490.80091198081766L785.5971642399479 490.80091198081766Q771.3926194109267 490.80091198081766 759.8937021683857 483.7933365318339Q748.3947849258448 476.7587048069853 741.7659973389682 464.0963677022578Q735.1372097520916 451.43403059753035 735.1372097520916 435.28143390624336L735.1372097520916 435.28143390624336ZM825.5322274163962 435.470827837297Q825.5322274163962 423.4037288015952 820.6620977607316 414.42104521448084Q815.7919681050672 405.46541790323124 807.5127476904378 400.70351335102606Q799.2335272758082 395.91455252295606 789.3038740334258 395.91455252295606L789.3038740334258 395.91455252295606Q779.3742207910434 395.91455252295606 771.1761692040083 400.5952882475668Q763.005173892838 405.27602397217765 758.1350442371736 414.2316512834272Q753.2649145815092 423.18727859467674 753.2649145815092 435.28143390624336L753.2649145815092 435.28143390624336Q753.2649145815092 447.5379268729988 758.1350442371736 456.6017792877076Q763.005173892838 465.66563170241636 771.1761692040083 470.4275362546216Q779.3742207910434 475.2164970826916 789.3038740334258 475.2164970826916L789.3038740334258 475.2164970826916Q799.2335272758082 475.2164970826916 807.5127476904378 470.4275362546216Q815.7919681050672 465.66563170241636 820.6620977607316 456.6017792877076Q825.5322274163962 447.5379268729988 825.5322274163962 435.470827837297L825.5322274163962 435.470827837297ZM879.8882856287838 382.2781894870957L913.1945612183555 472.67320715140016L946.3114428768736 382.2781894870957L965.2237797063704 382.2781894870957L923.3406646676564 489.0422540496055L902.6696699069474 489.0422540496055L860.7865548682335 382.2781894870957L879.8882856287838 382.2781894870957ZM991.9012677090653 364.96217293362224Q986.8417441223474 364.96217293362224 983.3244282599231 361.44485707119793Q979.8341686733636 357.9275412087736 979.8341686733636 352.8680176220556L979.8341686733636 352.8680176220556Q979.8341686733636 347.80849403533756 983.3244282599231 344.2911781729133Q986.8417441223474 340.80091858635376 991.9012677090653 340.80091858635376L991.9012677090653 340.80091858635376Q996.7713973647299 340.80091858635376 1000.1804881236949 344.2911781729133Q1003.58957888266 347.80849403533756 1003.58957888266 352.8680176220556L1003.58957888266 352.8680176220556Q1003.58957888266 357.9275412087736 1000.1804881236949 361.44485707119793Q996.7713973647299 364.96217293362224 991.9012677090653 364.96217293362224L991.9012677090653 364.96217293362224ZM982.7562464667623 382.2781894870957L1000.4781071582078 382.2781894870957L1000.4781071582078 489.0422540496055L982.7562464667623 489.0422540496055L982.7562464667623 382.2781894870957ZM1024.0441234364505 435.470827837297Q1024.0441234364505 418.91238700803797 1030.6729110233273 406.54766893782335Q1037.3016986102036 394.1829508676087 1049.0711786113925 387.36476934967857Q1060.8677148884465 380.54658783174835 1076.0462856486006 380.54658783174835L1076.0462856486006 380.54658783174835Q1095.7432544781764 380.54658783174835 1108.4867604104984 390.0703969361588Q1121.257322618685 399.62126231643396 1125.3428202742703 416.585547283665L1125.3428202742703 416.585547283665L1106.24108951372 416.585547283665Q1103.5354619272398 406.84528797233617 1095.6350293747173 401.1905263165925Q1087.734596822195 395.5357646608488 1076.0462856486006 395.5357646608488L1076.0462856486006 395.5357646608488Q1060.8677148884465 395.5357646608488 1051.5062434392248 405.9524308687977Q1042.171828265868 416.3690970767466 1042.171828265868 435.470827837297L1042.171828265868 435.470827837297Q1042.171828265868 454.761952528901 1051.5062434392248 465.28684384030913Q1060.8677148884465 475.7846788758524 1076.0462856486006 475.7846788758524L1076.0462856486006 475.7846788758524Q1087.734596822195 475.7846788758524 1095.5268042712582 470.3463674270272Q1103.3190117203212 464.8809997023371 1106.24108951372 454.761952528901L1106.24108951372 454.761952528901L1125.3428202742703 454.761952528901Q1121.0679286876316 471.1309994271064 1108.1891413759859 480.95242756602966Q1095.3374103402043 490.80091198081766 1076.0462856486006 490.80091198081766L1076.0462856486006 490.80091198081766Q1060.8677148884465 490.80091198081766 1049.0711786113925 483.9827304628875Q1037.3016986102036 477.16454894495735 1030.6729110233273 464.6916057712835Q1024.0441234364505 452.21866259760964 1024.0441234364505 435.470827837297L1024.0441234364505 435.470827837297ZM1195.472687315838 490.80091198081766Q1180.4835104867375 490.80091198081766 1168.3081863475763 483.9827304628875Q1156.1328622084152 477.16454894495735 1149.2064555870259 464.58338066782426Q1142.2800489656365 452.029268666556 1142.2800489656365 435.470827837297L1142.2800489656365 435.470827837297Q1142.2800489656365 419.1017809390916 1149.3958495180796 406.54766893782335Q1156.5116500705226 393.96650066069026 1168.7951993131428 387.25654424621933Q1181.0516922798984 380.54658783174835 1196.2573193159171 380.54658783174835L1196.2573193159171 380.54658783174835Q1211.4358900760712 380.54658783174835 1223.7194393186915 387.25654424621933Q1236.0029885613117 393.96650066069026 1243.09173283789 406.43944383436417Q1250.2075333903329 418.91238700803797 1250.2075333903329 435.470827837297L1250.2075333903329 435.470827837297Q1250.2075333903329 452.029268666556 1242.9023389068361 464.58338066782426Q1235.5971444233396 477.16454894495735 1223.124201249666 483.9827304628875Q1210.6783143518567 490.80091198081766 1195.472687315838 490.80091198081766L1195.472687315838 490.80091198081766ZM1195.472687315838 475.2164970826916Q1205.0235526961133 475.2164970826916 1213.3839419383369 470.72515528913436Q1221.7713874564256 466.260869771442 1226.9391361466028 457.27818618432764Q1232.1068848367802 448.3225588730781 1232.1068848367802 435.470827837297L1232.1068848367802 435.470827837297Q1232.1068848367802 422.6190968015159 1227.0203049741972 413.6634694902664Q1221.9607813874793 404.680785903152 1213.789786076309 400.29766921305406Q1205.591734489274 395.91455252295606 1196.0679253848634 395.91455252295606L1196.0679253848634 395.91455252295606Q1186.3276660735346 395.91455252295606 1178.2378395899586 400.29766921305406Q1170.148013106383 404.680785903152 1165.2778834507185 413.6634694902664Q1160.407753795054 422.6190968015159 1160.407753795054 435.470827837297L1160.407753795054 435.470827837297Q1160.407753795054 448.5119528041317 1165.1696583472594 457.4946363912461Q1169.9586191753292 466.45026370249565 1177.9402205554459 470.83338039259354Q1185.9218219355625 475.2164970826916 1195.472687315838 475.2164970826916L1195.472687315838 475.2164970826916ZM1325.613374225537 380.33013762482994Q1345.0938928481946 380.33013762482994 1357.1609918838963 392.12667390188375Q1369.2280909195983 403.92321017893755 1369.2280909195983 426.1093563880754L1369.2280909195983 426.1093563880754L1369.2280909195983 489.0422540496055L1351.6956241592065 489.0422540496055L1351.6956241592065 428.6526463193668Q1351.6956241592065 412.68944355913345 1343.7140227790896 404.19377293758555Q1335.7324213989732 395.7251585919024 1321.9066644320592 395.7251585919024L1321.9066644320592 395.7251585919024Q1307.8644572582266 395.7251585919024 1299.5852368435972 404.49139197209837Q1291.3060164289677 413.2576253522943 1291.3060164289677 430.00546011260695L1291.3060164289677 430.00546011260695L1291.3060164289677 489.0422540496055L1273.584155737522 489.0422540496055L1273.584155737522 382.2781894870957L1291.3060164289677 382.2781894870957L1291.3060164289677 397.48381652311457Q1296.581990222604 389.3128212119443 1305.6458426373129 384.8214794183871Q1314.6826387761566 380.33013762482994 1325.613374225537 380.33013762482994L1325.613374225537 380.33013762482994ZM1403.914236578275 490.205673911792Q1398.8547129915564 490.205673911792 1395.3373971291326 486.71541432523253Q1391.847137542573 483.1980984628083 1391.847137542573 478.1385748760902L1391.847137542573 478.1385748760902Q1391.847137542573 473.07905128937216 1395.3373971291326 469.56173542694785Q1398.8547129915564 466.0444195645236 1403.914236578275 466.0444195645236L1403.914236578275 466.0444195645236Q1408.7843662339392 466.0444195645236 1412.1934569929044 469.56173542694785Q1415.6025477518692 473.07905128937216 1415.6025477518692 478.1385748760902L1415.6025477518692 478.1385748760902Q1415.6025477518692 483.1980984628083 1412.1934569929044 486.71541432523253Q1408.7843662339392 490.205673911792 1403.914236578275 490.205673911792L1403.914236578275 490.205673911792ZM1448.34064154828 364.96217293362224Q1443.2540616856973 364.96217293362224 1439.763802099138 361.44485707119793Q1436.2464862367133 357.9275412087736 1436.2464862367133 352.8680176220556L1436.2464862367133 352.8680176220556Q1436.2464862367133 347.80849403533756 1439.763802099138 344.2911781729133Q1443.2540616856973 340.80091858635376 1448.34064154828 340.80091858635376L1448.34064154828 340.80091858635376Q1453.2107712039442 340.80091858635376 1456.61986196291 344.2911781729133Q1460.0289527218747 347.80849403533756 1460.0289527218747 352.8680176220556L1460.0289527218747 352.8680176220556Q1460.0289527218747 357.9275412087736 1456.61986196291 361.44485707119793Q1453.2107712039442 364.96217293362224 1448.34064154828 364.96217293362224L1448.34064154828 364.96217293362224ZM1439.168564030112 382.2781894870957L1456.8904247215578 382.2781894870957L1456.8904247215578 489.0422540496055L1439.168564030112 489.0422540496055L1439.168564030112 382.2781894870957ZM1533.6490793500016 490.80091198081766Q1518.6599025209011 490.80091198081766 1506.4845783817404 483.9827304628875Q1494.3092542425793 477.16454894495735 1487.3828476211897 464.58338066782426Q1480.4834972756653 452.029268666556 1480.4834972756653 435.470827837297L1480.4834972756653 435.470827837297Q1480.4834972756653 419.1017809390916 1487.5722415522437 406.54766893782335Q1494.6880421046867 393.96650066069026 1506.9715913473065 387.25654424621933Q1519.228084314062 380.54658783174835 1534.433711350081 380.54658783174835L1534.433711350081 380.54658783174835Q1549.6393383861 380.54658783174835 1561.8958313528556 387.25654424621933Q1574.1793805954758 393.96650066069026 1581.2951811479188 406.43944383436417Q1588.3839254244967 418.91238700803797 1588.3839254244967 435.470827837297L1588.3839254244967 435.470827837297Q1588.3839254244967 452.029268666556 1581.0787309410002 464.58338066782426Q1573.7735364575033 477.16454894495735 1561.3276495596947 483.9827304628875Q1548.8547063860206 490.80091198081766 1533.6490793500016 490.80091198081766L1533.6490793500016 490.80091198081766ZM1533.6490793500016 475.2164970826916Q1543.199944730277 475.2164970826916 1551.5873902483654 470.72515528913436Q1559.9477794905897 466.260869771442 1565.115528180767 457.27818618432764Q1570.283276870944 448.3225588730781 1570.283276870944 435.470827837297L1570.283276870944 435.470827837297Q1570.283276870944 422.6190968015159 1565.223753284226 413.6634694902664Q1560.1371734216432 404.680785903152 1551.9661781104728 400.29766921305406Q1543.7951827993024 395.91455252295606 1534.2443174190275 395.91455252295606L1534.2443174190275 395.91455252295606Q1524.5040581076987 395.91455252295606 1516.4142316241227 400.29766921305406Q1508.3244051405468 404.680785903152 1503.4542754848826 413.6634694902664Q1498.584145829218 422.6190968015159 1498.584145829218 435.470827837297L1498.584145829218 435.470827837297Q1498.584145829218 448.5119528041317 1503.3731066572877 457.4946363912461Q1508.1350112094933 466.45026370249565 1516.1166125896098 470.83338039259354Q1524.0982139697267 475.2164970826916 1533.6490793500016 475.2164970826916L1533.6490793500016 475.2164970826916Z " fill="#ffffff" transform="matrix(0.5508743607314841,0,0,0.5508743607314841,0,70.94594703886298)"/></g></svg>