<?xml version="1.0" standalone="no"?>
<!DOCTYPE svg PUBLIC "-//W3C//DTD SVG 20010904//EN"
 "http://www.w3.org/TR/2001/REC-SVG-20010904/DTD/svg10.dtd">
<svg version="1.0" xmlns="http://www.w3.org/2000/svg"
 width="276.000000pt" height="276.000000pt" viewBox="0 0 276.000000 276.000000"
 preserveAspectRatio="xMidYMid meet">
<metadata>
Created by potrace 1.14, written by Peter Selinger 2001-2017
</metadata>
<g transform="translate(0.000000,276.000000) scale(0.100000,-0.100000)"
fill="#000000" stroke="none">
<path d="M595 2507 c-16 -6 -32 -13 -35 -16 -3 -3 -27 -17 -55 -30 -27 -14
-52 -28 -55 -31 -3 -4 -24 -17 -47 -29 -24 -12 -43 -26 -43 -32 0 -6 -5 -7
-10 -4 -6 3 -17 -1 -26 -9 -8 -9 -22 -16 -30 -16 -8 0 -14 -4 -14 -10 0 -5 -5
-10 -11 -10 -6 0 -44 -19 -83 -43 -39 -23 -84 -49 -100 -57 -16 -8 -41 -26
-55 -40 l-26 -25 1 -331 c0 -293 2 -333 17 -354 9 -14 17 -22 17 -18 0 4 51
-23 113 -59 61 -36 132 -77 157 -91 25 -14 61 -35 80 -46 19 -12 48 -28 65
-36 48 -24 62 -44 60 -83 0 -21 2 -37 6 -37 4 0 3 -15 -1 -34 -4 -19 -4 -40 1
-47 4 -7 3 -19 -3 -26 -7 -9 -7 -13 2 -13 10 0 10 -3 0 -15 -10 -12 -10 -15 1
-15 9 0 10 -3 4 -8 -14 -10 -12 -57 4 -76 12 -14 12 -16 -3 -10 -18 7 -19 -15
-1 -28 6 -5 6 -8 -2 -8 -7 0 -10 -9 -7 -23 3 -12 7 -29 8 -37 2 -8 -1 -25 -5
-37 -6 -15 -5 -23 2 -23 8 0 7 -5 -1 -15 -9 -11 -9 -15 -1 -15 7 0 9 -5 5 -12
-11 -17 -12 -48 -3 -48 4 0 11 -9 14 -20 3 -11 11 -20 17 -20 5 0 22 -9 36
-19 15 -10 29 -18 32 -18 3 0 16 -6 30 -15 79 -48 132 -79 142 -81 7 -1 24
-12 38 -25 13 -12 33 -22 43 -22 10 0 20 -7 24 -16 3 -8 11 -13 19 -10 7 3 14
2 16 -2 4 -9 56 -44 93 -62 17 -8 32 -17 35 -21 23 -26 110 -33 110 -9 0 4 11
11 24 14 14 3 31 12 38 19 8 6 29 20 48 31 112 60 146 80 150 86 3 3 26 17 53
29 26 13 47 27 47 32 0 6 4 8 9 4 5 -3 12 -1 16 4 8 15 57 36 80 36 11 0 103
-47 203 -105 317 -181 299 -173 335 -160 17 6 41 20 54 32 13 12 23 19 23 15
0 -4 21 6 48 22 26 15 58 34 72 42 14 8 27 16 30 19 3 3 21 13 40 24 95 51
145 80 150 86 3 3 22 14 43 23 20 10 37 22 37 27 0 6 3 9 8 8 17 -5 50 14 61
35 16 30 21 357 6 357 -6 0 -6 3 1 8 6 4 9 16 7 27 -2 11 -4 25 -4 30 0 6 1
55 2 110 2 179 10 158 -86 215 -47 27 -90 50 -95 50 -6 0 -10 5 -10 10 0 6 -6
10 -14 10 -8 0 -22 7 -30 16 -9 8 -20 12 -26 9 -5 -3 -10 -2 -10 3 0 5 -20 20
-45 33 -25 13 -45 27 -45 30 0 4 -11 10 -25 13 -14 4 -25 11 -25 17 0 6 -4 7
-10 4 -5 -3 -10 -1 -10 4 0 6 -7 11 -15 11 -25 0 -58 38 -60 68 -1 15 -5 33
-9 40 -4 7 -3 12 1 12 5 0 9 9 9 20 0 11 -4 20 -9 20 -4 0 -5 4 -2 10 11 19
14 50 4 50 -6 0 -7 5 -3 12 11 17 13 69 3 62 -5 -3 -5 6 1 20 5 15 6 28 0 31
-6 3 -6 15 0 30 7 18 6 25 -3 25 -7 0 -8 3 -2 8 12 8 13 32 2 50 -5 6 -5 12 0
12 4 0 8 16 8 35 0 19 -4 35 -8 35 -4 0 -3 8 2 18 6 11 6 24 0 35 -6 9 -7 17
-4 17 4 0 -1 8 -11 17 -17 18 -252 153 -265 153 -4 0 -9 4 -11 8 -2 7 -119 75
-269 159 l-40 22 -62 -33 c-34 -18 -78 -42 -97 -53 -19 -11 -85 -49 -145 -84
-61 -35 -127 -73 -148 -84 -20 -11 -37 -23 -37 -26 0 -8 -72 10 -80 20 -3 3
-30 19 -60 35 -30 16 -74 42 -97 57 -24 15 -50 29 -60 31 -9 2 -27 13 -41 25
-13 12 -27 21 -31 20 -3 -1 -17 6 -31 14 -110 70 -125 76 -155 66z"/>
<path d="M490 1060 c0 -5 5 -10 11 -10 5 0 7 5 4 10 -3 6 -8 10 -11 10 -2 0
-4 -4 -4 -10z"/>
</g>
</svg>
