<svg width="750" height="500" viewBox="0 0 750 500" fill="none" xmlns="http://www.w3.org/2000/svg">
<path d="M673.73 321.85H492.98C489.75 321.85 487.12 319.22 487.12 315.99V52.7101C487.12 49.4801 489.75 46.8501 492.98 46.8501H673.73C676.96 46.8501 679.59 49.4801 679.59 52.7101V315.99C679.59 319.22 676.96 321.85 673.73 321.85ZM492.99 47.1001C489.9 47.1001 487.38 49.6201 487.38 52.7101V315.99C487.38 319.08 489.9 321.6 492.99 321.6H673.74C676.83 321.6 679.35 319.08 679.35 315.99V52.7101C679.35 49.6201 676.83 47.1001 673.74 47.1001H492.99Z" fill="#E0E0E0"/>
<path d="M465.31 321.85H284.56C281.33 321.85 278.7 319.22 278.7 315.99V52.7101C278.7 49.4801 281.33 46.8501 284.56 46.8501H465.31C468.54 46.8501 471.17 49.4801 471.17 52.7101V315.99C471.17 319.22 468.54 321.85 465.31 321.85ZM284.56 47.1001C281.47 47.1001 278.95 49.6201 278.95 52.7101V315.99C278.95 319.08 281.47 321.6 284.56 321.6H465.31C468.4 321.6 470.92 319.08 470.92 315.99V52.7101C470.92 49.6201 468.4 47.1001 465.31 47.1001H284.56Z" fill="#E0E0E0"/>
<path d="M257.01 321.85H76.2701C73.0401 321.85 70.4102 319.22 70.4102 315.99V52.7101C70.4102 49.4801 73.0401 46.8501 76.2701 46.8501H257.02C260.25 46.8501 262.88 49.4801 262.88 52.7101V315.99C262.88 319.22 260.25 321.85 257.02 321.85H257.01ZM76.2701 47.1001C73.1801 47.1001 70.6602 49.6201 70.6602 52.7101V315.99C70.6602 319.08 73.1801 321.6 76.2701 321.6H257.02C260.11 321.6 262.63 319.08 262.63 315.99V52.7101C262.63 49.6201 260.11 47.1001 257.02 47.1001H76.2701Z" fill="#E0E0E0"/>
<path d="M750 382.92H0V383.04H750V382.92Z" fill="#E0E0E0"/>
<path d="M709.36 412.3H653.63V412.72H709.36V412.3Z" fill="#EBEBEB"/>
<path d="M509.67 416.86H495.04V417.28H509.67V416.86Z" fill="#EBEBEB"/>
<path d="M113.31 399.5H40.6396V399.92H113.31V399.5Z" fill="#EBEBEB"/>
<path d="M138.96 399.5H128.3V399.92H138.96V399.5Z" fill="#EBEBEB"/>
<path d="M331.2 406.6H173.59V407.02H331.2V406.6Z" fill="#EBEBEB"/>
<path d="M86.6793 439.28C87.5793 427.97 93.7793 416.54 103.759 408.77C106.249 406.84 111.489 403 107.239 400.98C102.389 398.66 93.0893 409.48 91.7793 411.48C94.5293 402.87 102.879 396.63 111.929 393.05C116.399 391.28 120.669 389.61 115.899 386.98C111.129 384.36 100.819 390.72 98.4293 393.45C104.079 387.14 111.229 380.83 118.549 377.05C126.629 372.88 122.979 365.94 114.649 371.31C109.489 374.64 100.999 382.97 100.999 382.97C100.999 382.97 114.339 361.57 110.309 359.64C105.089 357.14 95.9593 386.3 93.4293 392.05C94.1093 387.28 94.7393 375.75 90.2993 375.25C86.2393 374.8 87.2293 403.51 86.2893 408.58C85.6993 410.79 85.4193 411.91 84.9493 414.14C84.5093 410.32 81.8193 400.23 77.7893 401.4C74.3693 402.38 76.4893 409.93 77.3693 413.51C79.5193 422.18 81.6893 430.57 81.7093 439.47L86.6393 439.26L86.6793 439.28Z" fill="#F0F0F0"/>
<path d="M79.2898 444.2C78.3698 429.43 71.8898 414.49 61.4698 404.35C58.8698 401.83 53.4198 396.82 57.7998 394.18C62.8498 391.16 72.5698 405.28 73.9198 407.88C71.0598 396.63 62.3398 388.49 52.9098 383.82C48.2398 381.51 43.7898 379.33 48.7598 375.9C53.7298 372.47 64.4998 380.79 66.9798 384.35C61.0798 376.09 53.6298 367.84 45.9998 362.94C37.5698 357.51 41.4098 348.43 50.0598 355.45C55.4998 359.8 64.3398 370.65 64.3398 370.65C64.3398 370.65 50.4298 342.71 54.6398 340.14C60.0298 336.84 69.5998 375 72.2298 382.45C71.5298 376.23 70.8698 361.17 75.5498 360.52C79.7798 359.93 78.7398 397.41 79.7198 404.04C80.3398 406.93 80.6398 408.38 81.0998 411.3C81.5698 406.31 84.3498 393.15 88.5798 394.67C92.1398 395.95 89.9398 405.81 89.0098 410.48C86.7598 421.8 84.4998 432.76 84.4898 444.37L79.2898 444.2Z" fill="#E6E6E6"/>
<path d="M63.1797 436.82L67.9397 462.97H96.1397L101.19 436.82H63.1797Z" fill="#E0E0E0"/>
<path d="M105.11 429.28H59.7695V438H105.11V429.28Z" fill="#E0E0E0"/>
<path d="M662.6 439.28C661.7 427.97 655.5 416.54 645.52 408.77C643.03 406.84 637.79 403 642.04 400.98C646.89 398.66 656.19 409.48 657.5 411.48C654.75 402.87 646.4 396.63 637.35 393.05C632.88 391.28 628.61 389.61 633.38 386.98C638.15 384.36 648.46 390.72 650.85 393.45C645.2 387.14 638.05 380.83 630.73 377.05C622.65 372.88 626.3 365.94 634.63 371.31C639.79 374.64 648.28 382.97 648.28 382.97C648.28 382.97 634.94 361.57 638.97 359.64C644.19 357.14 653.32 386.3 655.85 392.05C655.17 387.28 654.54 375.75 658.98 375.25C663.04 374.8 662.05 403.51 662.99 408.58C663.58 410.79 663.86 411.91 664.33 414.14C664.77 410.32 667.46 400.23 671.49 401.4C674.91 402.38 672.79 409.93 671.91 413.51C669.76 422.18 667.59 430.57 667.57 439.47L662.64 439.26L662.6 439.28Z" fill="#F0F0F0"/>
<path d="M670.001 444.2C670.921 429.43 677.401 414.49 687.821 404.35C690.421 401.83 695.871 396.82 691.491 394.18C686.441 391.16 676.721 405.28 675.371 407.88C678.231 396.63 686.951 388.49 696.381 383.82C701.051 381.51 705.501 379.33 700.531 375.9C695.561 372.47 684.791 380.79 682.311 384.35C688.211 376.09 695.661 367.84 703.291 362.94C711.721 357.51 707.881 348.43 699.231 355.45C693.791 359.8 684.951 370.65 684.951 370.65C684.951 370.65 698.861 342.71 694.651 340.14C689.261 336.84 679.691 375 677.061 382.45C677.761 376.23 678.421 361.17 673.741 360.52C669.511 359.93 670.551 397.41 669.571 404.04C668.951 406.93 668.651 408.38 668.181 411.3C667.711 406.31 664.931 393.15 660.701 394.67C657.141 395.95 659.341 405.81 660.271 410.48C662.521 421.8 664.781 432.76 664.791 444.37L669.991 444.2H670.001Z" fill="#E6E6E6"/>
<path d="M686.101 436.82L681.341 462.97H653.141L648.091 436.82H686.101Z" fill="#E0E0E0"/>
<path d="M644.171 438H689.511V429.28H644.171V438Z" fill="#E0E0E0"/>
<path d="M384.38 98.0602V128.19L410.47 143.26L436.57 128.19V98.0602L410.47 82.9902L384.38 98.0602Z" fill="#FAFAFA"/>
<path d="M410.47 143.63C410.41 143.63 410.34 143.61 410.28 143.58L384.18 128.51C384.06 128.44 383.99 128.32 383.99 128.19V98.0602C383.99 97.9302 384.06 97.8002 384.18 97.7402L410.28 82.6702C410.4 82.6002 410.54 82.6002 410.66 82.6702L436.76 97.7402C436.88 97.8102 436.95 97.9302 436.95 98.0602V128.19C436.95 128.32 436.88 128.45 436.76 128.51L410.66 143.58C410.6 143.61 410.54 143.63 410.47 143.63ZM384.75 127.97L410.47 142.82L436.19 127.97V98.2702L410.47 83.4202L384.75 98.2702V127.97Z" fill="#F0F0F0"/>
<path d="M436.57 98.0602V128.19L462.66 143.26L488.76 128.19V98.0602L462.66 82.9902L436.57 98.0602Z" fill="#FAFAFA"/>
<path d="M462.661 143.63C462.601 143.63 462.531 143.61 462.471 143.58L436.371 128.51C436.251 128.44 436.181 128.32 436.181 128.19V98.0602C436.181 97.9302 436.251 97.8002 436.371 97.7402L462.471 82.6702C462.591 82.6002 462.731 82.6002 462.851 82.6702L488.951 97.7402C489.071 97.8102 489.141 97.9302 489.141 98.0602V128.19C489.141 128.32 489.071 128.45 488.951 128.51L462.851 143.58C462.791 143.61 462.731 143.63 462.661 143.63ZM436.941 127.97L462.661 142.82L488.381 127.97V98.2702L462.661 83.4202L436.941 98.2702V127.97Z" fill="#F0F0F0"/>
<path d="M489.12 98.0602V128.19L515.21 143.26L541.31 128.19V98.0602L515.21 82.9902L489.12 98.0602Z" fill="#FAFAFA"/>
<path d="M515.21 143.63C515.15 143.63 515.08 143.61 515.02 143.58L488.92 128.51C488.8 128.44 488.73 128.32 488.73 128.19V98.0602C488.73 97.9302 488.8 97.8002 488.92 97.7402L515.02 82.6702C515.14 82.6002 515.28 82.6002 515.4 82.6702L541.5 97.7402C541.62 97.8102 541.69 97.9302 541.69 98.0602V128.19C541.69 128.32 541.62 128.45 541.5 128.51L515.4 143.58C515.34 143.61 515.28 143.63 515.21 143.63ZM489.49 127.97L515.21 142.82L540.93 127.97V98.2702L515.21 83.4202L489.49 98.2702V127.97Z" fill="#F0F0F0"/>
<path d="M541.311 98.0602V128.19L567.411 143.26L593.501 128.19V98.0602L567.411 82.9902L541.311 98.0602Z" fill="#FAFAFA"/>
<path d="M567.411 143.63C567.351 143.63 567.281 143.61 567.221 143.58L541.121 128.51C541.001 128.44 540.931 128.32 540.931 128.19V98.0602C540.931 97.9302 541.001 97.8002 541.121 97.7402L567.221 82.6702C567.341 82.6002 567.481 82.6002 567.601 82.6702L593.701 97.7402C593.821 97.8102 593.891 97.9302 593.891 98.0602V128.19C593.891 128.32 593.821 128.45 593.701 128.51L567.601 143.58C567.541 143.61 567.481 143.63 567.411 143.63ZM541.691 127.97L567.411 142.82L593.131 127.97V98.2702L567.411 83.4202L541.691 98.2702V127.97Z" fill="#F0F0F0"/>
<path d="M463.021 52.6901V82.8201L489.121 97.8901L515.211 82.8201V52.6901L489.121 37.6201L463.021 52.6901Z" fill="#FAFAFA"/>
<path d="M489.121 98.2601C489.061 98.2601 488.991 98.2401 488.931 98.2101L462.831 83.1401C462.711 83.0701 462.641 82.9501 462.641 82.8201V52.6901C462.641 52.5601 462.711 52.4301 462.831 52.3701L488.931 37.3001C489.051 37.2301 489.191 37.2301 489.311 37.3001L515.411 52.3701C515.531 52.4401 515.601 52.5601 515.601 52.6901V82.8201C515.601 82.9501 515.531 83.0801 515.411 83.1401L489.311 98.2101C489.251 98.2401 489.191 98.2601 489.121 98.2601ZM463.401 82.6001L489.121 97.4501L514.841 82.6001V52.9001L489.121 38.0501L463.401 52.9001V82.6001Z" fill="#F0F0F0"/>
<path d="M593.86 98.43C593.73 98.43 593.61 98.37 593.54 98.25C593.43 98.07 593.49 97.84 593.66 97.73L613.25 85.78C613.42 85.67 613.66 85.73 613.77 85.9C613.88 86.08 613.82 86.31 613.65 86.42L594.06 98.37C594 98.41 593.93 98.42 593.86 98.42V98.43Z" fill="#F0F0F0"/>
<path d="M463.02 53.0601C462.94 53.0601 462.87 53.0401 462.8 52.9901L437.73 34.8501C437.56 34.7301 437.52 34.4901 437.65 34.3301C437.77 34.1601 438.01 34.1201 438.17 34.2501L463.24 52.3901C463.41 52.5101 463.45 52.7501 463.32 52.9101C463.25 53.0101 463.13 53.0701 463.02 53.0701V53.0601Z" fill="#F0F0F0"/>
<path d="M471.361 57.9101C471.231 57.9101 471.101 57.8401 471.031 57.7201C470.931 57.5401 470.991 57.3101 471.171 57.2101L489.761 46.5701C489.941 46.4701 490.171 46.5301 490.271 46.7101C490.371 46.8901 490.311 47.1201 490.131 47.2201L471.541 57.8601C471.481 57.8901 471.421 57.9101 471.351 57.9101H471.361Z" fill="#F0F0F0"/>
<path d="M444.96 102.98C444.83 102.98 444.7 102.91 444.63 102.79C444.53 102.61 444.59 102.38 444.77 102.28L463.36 91.64C463.54 91.54 463.77 91.6 463.87 91.78C463.97 91.96 463.91 92.19 463.73 92.29L445.14 102.93C445.08 102.96 445.02 102.98 444.95 102.98H444.96Z" fill="#F0F0F0"/>
<path d="M497.281 102.98C497.151 102.98 497.021 102.91 496.951 102.79C496.851 102.61 496.911 102.38 497.091 102.28L515.681 91.64C515.861 91.54 516.091 91.6 516.191 91.78C516.291 91.96 516.23 92.19 516.05 92.29L497.461 102.93C497.401 102.96 497.34 102.98 497.27 102.98H497.281Z" fill="#F0F0F0"/>
<path d="M549.351 118.79C549.141 118.79 548.971 118.62 548.971 118.41V107.63C548.971 107.42 549.141 107.25 549.351 107.25C549.561 107.25 549.731 107.42 549.731 107.63V118.41C549.731 118.62 549.561 118.79 549.351 118.79Z" fill="#F0F0F0"/>
<path d="M443.42 118.79C443.21 118.79 443.04 118.62 443.04 118.41V107.63C443.04 107.42 443.21 107.25 443.42 107.25C443.63 107.25 443.8 107.42 443.8 107.63V118.41C443.8 118.62 443.63 118.79 443.42 118.79Z" fill="#F0F0F0"/>
<path d="M171.09 297.71V329.04L198.23 344.71L225.36 329.04V297.71L198.23 282.04L171.09 297.71Z" fill="#FAFAFA"/>
<path d="M198.23 345.08C198.17 345.08 198.1 345.06 198.04 345.03L170.9 329.36C170.78 329.29 170.71 329.17 170.71 329.03V297.69C170.71 297.56 170.78 297.43 170.9 297.36L198.04 281.69C198.16 281.62 198.3 281.62 198.42 281.69L225.56 297.36C225.68 297.43 225.75 297.55 225.75 297.69V329.03C225.75 329.16 225.68 329.29 225.56 329.36L198.42 345.03C198.36 345.06 198.3 345.08 198.23 345.08ZM171.47 328.82L198.23 344.27L224.99 328.82V297.92L198.23 282.47L171.47 297.92V328.82Z" fill="#F0F0F0"/>
<path d="M225.359 297.71V329.04L252.499 344.71L279.639 329.04V297.71L252.499 282.04L225.359 297.71Z" fill="#FAFAFA"/>
<path d="M252.499 345.08C252.439 345.08 252.369 345.06 252.309 345.03L225.169 329.36C225.049 329.29 224.979 329.17 224.979 329.03V297.69C224.979 297.56 225.049 297.43 225.169 297.36L252.309 281.69C252.429 281.62 252.569 281.62 252.689 281.69L279.829 297.36C279.949 297.43 280.019 297.55 280.019 297.69V329.03C280.019 329.16 279.949 329.29 279.829 329.36L252.689 345.03C252.629 345.06 252.569 345.08 252.499 345.08ZM225.74 328.82L252.499 344.27L279.26 328.82V297.92L252.499 282.47L225.74 297.92V328.82Z" fill="#F0F0F0"/>
<path d="M280.01 297.71V329.04L307.15 344.71L334.29 329.04V297.71L307.15 282.04L280.01 297.71Z" fill="#FAFAFA"/>
<path d="M307.15 345.08C307.09 345.08 307.02 345.06 306.96 345.03L279.82 329.36C279.7 329.29 279.63 329.17 279.63 329.03V297.69C279.63 297.56 279.7 297.43 279.82 297.36L306.96 281.69C307.08 281.62 307.22 281.62 307.34 281.69L334.48 297.36C334.6 297.43 334.67 297.55 334.67 297.69V329.03C334.67 329.16 334.6 329.29 334.48 329.36L307.34 345.03C307.28 345.06 307.22 345.08 307.15 345.08ZM280.39 328.82L307.15 344.27L333.91 328.82V297.92L307.15 282.47L280.39 297.92V328.82Z" fill="#F0F0F0"/>
<path d="M334.29 297.71V329.04L361.43 344.71L388.57 329.04V297.71L361.43 282.04L334.29 297.71Z" fill="#FAFAFA"/>
<path d="M361.43 345.08C361.37 345.08 361.3 345.06 361.24 345.03L334.1 329.36C333.98 329.29 333.91 329.17 333.91 329.03V297.69C333.91 297.56 333.98 297.43 334.1 297.36L361.24 281.69C361.36 281.62 361.5 281.62 361.62 281.69L388.76 297.36C388.88 297.43 388.95 297.55 388.95 297.69V329.03C388.95 329.16 388.88 329.29 388.76 329.36L361.62 345.03C361.56 345.06 361.5 345.08 361.43 345.08ZM334.67 328.82L361.43 344.27L388.19 328.82V297.92L361.43 282.47L334.67 297.92V328.82Z" fill="#F0F0F0"/>
<path d="M252.88 250.82V282.15L280.01 297.82L307.15 282.15V250.82L280.01 235.15L252.88 250.82Z" fill="#FAFAFA"/>
<path d="M280.01 298.2C279.95 298.2 279.88 298.18 279.82 298.15L252.68 282.48C252.56 282.41 252.49 282.29 252.49 282.15V250.81C252.49 250.68 252.56 250.55 252.68 250.49L279.82 234.82C279.94 234.75 280.08 234.75 280.2 234.82L307.34 250.49C307.46 250.56 307.53 250.68 307.53 250.81V282.15C307.53 282.28 307.46 282.41 307.34 282.48L280.2 298.15C280.14 298.18 280.08 298.2 280.01 298.2ZM253.25 281.94L280.01 297.39L306.77 281.94V251.04L280.01 235.59L253.25 251.04V281.94Z" fill="#F0F0F0"/>
<path d="M388.94 298.08C388.81 298.08 388.69 298.02 388.62 297.9C388.51 297.72 388.57 297.49 388.74 297.38L409.11 284.95C409.28 284.84 409.52 284.9 409.63 285.07C409.74 285.25 409.68 285.48 409.51 285.59L389.14 298.02C389.08 298.06 389.01 298.07 388.94 298.07V298.08Z" fill="#F0F0F0"/>
<path d="M252.88 250.9C252.8 250.9 252.73 250.88 252.66 250.83L226.59 231.96C226.42 231.84 226.38 231.6 226.51 231.44C226.64 231.28 226.87 231.23 227.03 231.36L253.1 250.23C253.27 250.35 253.31 250.59 253.18 250.75C253.11 250.85 252.99 250.91 252.88 250.91V250.9Z" fill="#F0F0F0"/>
<path d="M261.55 255.94C261.42 255.94 261.29 255.87 261.22 255.75C261.12 255.57 261.18 255.34 261.36 255.24L280.69 244.17C280.87 244.07 281.1 244.13 281.2 244.31C281.3 244.49 281.24 244.72 281.06 244.82L261.73 255.89C261.67 255.92 261.61 255.94 261.54 255.94H261.55Z" fill="#F0F0F0"/>
<path d="M234.1 302.81C233.97 302.81 233.84 302.74 233.77 302.62C233.67 302.44 233.73 302.21 233.91 302.11L253.24 291.04C253.42 290.93 253.65 291 253.75 291.18C253.85 291.36 253.79 291.59 253.61 291.69L234.28 302.76C234.22 302.79 234.16 302.81 234.09 302.81H234.1Z" fill="#F0F0F0"/>
<path d="M288.5 302.81C288.37 302.81 288.24 302.74 288.17 302.62C288.07 302.44 288.13 302.21 288.31 302.11L307.64 291.04C307.82 290.93 308.05 291 308.15 291.18C308.25 291.36 308.19 291.59 308.01 291.69L288.68 302.76C288.62 302.79 288.56 302.81 288.49 302.81H288.5Z" fill="#F0F0F0"/>
<path d="M338.05 323.33C337.84 323.33 337.67 323.16 337.67 322.95V311.74C337.67 311.53 337.84 311.36 338.05 311.36C338.26 311.36 338.43 311.53 338.43 311.74V322.95C338.43 323.16 338.26 323.33 338.05 323.33Z" fill="#F0F0F0"/>
<path d="M232.49 319.25C232.28 319.25 232.11 319.08 232.11 318.87V307.65C232.11 307.44 232.28 307.27 232.49 307.27C232.7 307.27 232.87 307.44 232.87 307.65V318.87C232.87 319.08 232.7 319.25 232.49 319.25Z" fill="#F0F0F0"/>
<path d="M186.64 114.75V146.09L213.77 161.76L240.91 146.09V114.75L213.77 99.0801L186.64 114.75Z" fill="#FAFAFA"/>
<path d="M213.77 162.13C213.71 162.13 213.64 162.11 213.58 162.08L186.44 146.41C186.32 146.34 186.25 146.22 186.25 146.09V114.75C186.25 114.62 186.32 114.49 186.44 114.43L213.58 98.76C213.7 98.69 213.84 98.69 213.96 98.76L241.1 114.43C241.22 114.5 241.29 114.62 241.29 114.75V146.09C241.29 146.22 241.22 146.35 241.1 146.41L213.96 162.08C213.9 162.11 213.84 162.13 213.77 162.13ZM187.01 145.87L213.77 161.32L240.53 145.87V114.97L213.77 99.52L187.01 114.97V145.87Z" fill="#F0F0F0"/>
<path d="M240.91 114.75V146.09L268.05 161.76L295.19 146.09V114.75L268.05 99.0801L240.91 114.75Z" fill="#FAFAFA"/>
<path d="M268.05 162.13C267.99 162.13 267.92 162.11 267.86 162.08L240.72 146.41C240.6 146.34 240.53 146.22 240.53 146.09V114.75C240.53 114.62 240.6 114.49 240.72 114.43L267.86 98.76C267.98 98.69 268.12 98.69 268.24 98.76L295.38 114.43C295.5 114.5 295.57 114.62 295.57 114.75V146.09C295.57 146.22 295.5 146.35 295.38 146.41L268.24 162.08C268.18 162.11 268.12 162.13 268.05 162.13ZM241.29 145.87L268.05 161.32L294.81 145.87V114.97L268.05 99.52L241.29 114.97V145.87Z" fill="#F0F0F0"/>
<path d="M295.56 114.75V146.09L322.7 161.76L349.84 146.09V114.75L322.7 99.0801L295.56 114.75Z" fill="#FAFAFA"/>
<path d="M322.7 162.13C322.64 162.13 322.57 162.11 322.51 162.08L295.37 146.41C295.25 146.34 295.18 146.22 295.18 146.09V114.75C295.18 114.62 295.25 114.49 295.37 114.43L322.51 98.76C322.63 98.69 322.77 98.69 322.89 98.76L350.03 114.43C350.15 114.5 350.22 114.62 350.22 114.75V146.09C350.22 146.22 350.15 146.35 350.03 146.41L322.89 162.08C322.83 162.11 322.77 162.13 322.7 162.13ZM295.94 145.87L322.7 161.32L349.46 145.87V114.97L322.7 99.52L295.94 114.97V145.87Z" fill="#F0F0F0"/>
<path d="M350.21 114.75V146.09L377.35 161.76L404.49 146.09V114.75L377.35 99.0801L350.21 114.75Z" fill="#FAFAFA"/>
<path d="M377.35 162.13C377.29 162.13 377.22 162.11 377.16 162.08L350.02 146.41C349.9 146.34 349.83 146.22 349.83 146.09V114.75C349.83 114.62 349.9 114.49 350.02 114.43L377.16 98.76C377.28 98.69 377.42 98.69 377.54 98.76L404.68 114.43C404.8 114.5 404.87 114.62 404.87 114.75V146.09C404.87 146.22 404.8 146.35 404.68 146.41L377.54 162.08C377.48 162.11 377.42 162.13 377.35 162.13ZM350.59 145.87L377.35 161.32L404.11 145.87V114.97L377.35 99.52L350.59 114.97V145.87Z" fill="#F0F0F0"/>
<path d="M268.05 67.94V99.27L295.19 114.94L322.33 99.27V67.94L295.19 52.27L268.05 67.94Z" fill="#FAFAFA"/>
<path d="M295.19 115.32C295.13 115.32 295.06 115.3 295 115.27L267.86 99.6C267.74 99.53 267.67 99.41 267.67 99.28V67.94C267.67 67.81 267.74 67.68 267.86 67.62L295 51.95C295.12 51.88 295.26 51.88 295.38 51.95L322.52 67.62C322.64 67.69 322.71 67.81 322.71 67.94V99.28C322.71 99.41 322.64 99.54 322.52 99.6L295.38 115.27C295.32 115.3 295.26 115.32 295.19 115.32ZM268.43 99.06L295.19 114.51L321.95 99.06V68.16L295.19 52.71L268.43 68.16V99.06Z" fill="#F0F0F0"/>
<path d="M404.49 115.13C404.36 115.13 404.24 115.07 404.17 114.95C404.06 114.77 404.12 114.54 404.29 114.43L424.66 102C424.83 101.89 425.07 101.95 425.18 102.12C425.29 102.3 425.23 102.53 425.06 102.64L404.69 115.07C404.63 115.11 404.56 115.12 404.49 115.12V115.13Z" fill="#F0F0F0"/>
<path d="M268.42 67.94C268.34 67.94 268.27 67.92 268.2 67.87L242.13 49C241.96 48.88 241.92 48.64 242.05 48.48C242.17 48.31 242.41 48.27 242.57 48.4L268.64 67.27C268.81 67.39 268.85 67.63 268.72 67.79C268.65 67.89 268.53 67.95 268.42 67.95V67.94Z" fill="#F0F0F0"/>
<path d="M277.1 72.99C276.97 72.99 276.84 72.9201 276.77 72.8001C276.67 72.6201 276.73 72.39 276.91 72.29L296.24 61.22C296.42 61.12 296.65 61.18 296.75 61.36C296.85 61.54 296.79 61.77 296.61 61.87L277.28 72.9401C277.22 72.9701 277.16 72.99 277.09 72.99H277.1Z" fill="#F0F0F0"/>
<path d="M249.65 119.85C249.52 119.85 249.39 119.78 249.32 119.66C249.22 119.48 249.28 119.25 249.46 119.15L268.79 108.08C268.97 107.98 269.2 108.04 269.3 108.22C269.4 108.4 269.34 108.63 269.16 108.73L249.83 119.8C249.77 119.83 249.71 119.85 249.64 119.85H249.65Z" fill="#F0F0F0"/>
<path d="M304.05 119.85C303.92 119.85 303.79 119.78 303.72 119.66C303.62 119.48 303.68 119.25 303.86 119.15L323.19 108.08C323.37 107.98 323.6 108.04 323.7 108.22C323.8 108.4 323.74 108.63 323.56 108.73L304.23 119.8C304.17 119.83 304.11 119.85 304.04 119.85H304.05Z" fill="#F0F0F0"/>
<path d="M358.2 136.29C357.99 136.29 357.82 136.12 357.82 135.91V124.69C357.82 124.48 357.99 124.31 358.2 124.31C358.41 124.31 358.58 124.48 358.58 124.69V135.91C358.58 136.12 358.41 136.29 358.2 136.29Z" fill="#F0F0F0"/>
<path d="M248.04 136.29C247.83 136.29 247.66 136.12 247.66 135.91V124.69C247.66 124.48 247.83 124.31 248.04 124.31C248.25 124.31 248.42 124.48 248.42 124.69V135.91C248.42 136.12 248.25 136.29 248.04 136.29Z" fill="#F0F0F0"/>
<path d="M445.75 317.54V350.71L474.47 367.29L503.19 350.71V317.54L474.47 300.96L445.75 317.54Z" fill="#FAFAFA"/>
<path d="M474.47 367.66C474.41 367.66 474.34 367.64 474.28 367.61L445.56 351.03C445.44 350.96 445.37 350.84 445.37 350.7V317.54C445.37 317.41 445.44 317.28 445.56 317.21L474.28 300.63C474.4 300.56 474.54 300.56 474.66 300.63L503.38 317.21C503.5 317.28 503.57 317.4 503.57 317.54V350.7C503.57 350.83 503.5 350.96 503.38 351.03L474.66 367.61C474.6 367.64 474.54 367.66 474.47 367.66ZM446.13 350.49L474.47 366.86L502.81 350.49V317.76L474.47 301.39L446.13 317.76V350.49Z" fill="#F0F0F0"/>
<path d="M503.19 317.54V350.71L531.91 367.29L560.63 350.71V317.54L531.91 300.96L503.19 317.54Z" fill="#FAFAFA"/>
<path d="M531.911 367.66C531.851 367.66 531.781 367.64 531.721 367.61L503.001 351.03C502.881 350.96 502.811 350.84 502.811 350.7V317.54C502.811 317.41 502.881 317.28 503.001 317.21L531.721 300.63C531.841 300.56 531.981 300.56 532.101 300.63L560.821 317.21C560.941 317.28 561.011 317.4 561.011 317.54V350.7C561.011 350.83 560.941 350.96 560.821 351.03L532.101 367.61C532.041 367.64 531.981 367.66 531.911 367.66ZM503.561 350.49L531.911 366.86L560.251 350.49V317.76L531.911 301.39L503.561 317.76V350.49Z" fill="#F0F0F0"/>
<path d="M474.47 367.26V400.43L503.19 417.01L531.91 400.43V367.26L503.19 350.68L474.47 367.26Z" fill="#FAFAFA"/>
<path d="M503.19 417.38C503.13 417.38 503.06 417.36 503 417.33L474.28 400.75C474.16 400.68 474.09 400.56 474.09 400.42V367.26C474.09 367.13 474.16 367 474.28 366.93L503 350.35C503.12 350.28 503.26 350.28 503.38 350.35L532.1 366.93C532.22 367 532.29 367.12 532.29 367.26V400.42C532.29 400.55 532.22 400.68 532.1 400.75L503.38 417.33C503.32 417.36 503.26 417.38 503.19 417.38ZM474.85 400.21L503.19 416.58L531.54 400.21V367.48L503.19 351.11L474.85 367.48V400.21Z" fill="#F0F0F0"/>
<path d="M474.47 267.61V300.77L503.19 317.35L531.91 300.77V267.61L503.19 251.03L474.47 267.61Z" fill="#FAFAFA"/>
<path d="M503.19 317.73C503.13 317.73 503.06 317.71 503 317.68L474.28 301.1C474.16 301.03 474.09 300.91 474.09 300.77V267.61C474.09 267.48 474.16 267.35 474.28 267.28L503 250.7C503.12 250.63 503.26 250.63 503.38 250.7L532.1 267.28C532.22 267.35 532.29 267.47 532.29 267.61V300.77C532.29 300.9 532.22 301.03 532.1 301.1L503.38 317.68C503.32 317.71 503.26 317.73 503.19 317.73ZM474.85 300.56L503.19 316.93L531.54 300.56V267.83L503.19 251.46L474.85 267.83V300.56Z" fill="#F0F0F0"/>
<path d="M561.02 317.79C560.89 317.79 560.77 317.73 560.7 317.61C560.59 317.43 560.65 317.2 560.82 317.09L582.38 303.93C582.55 303.82 582.79 303.88 582.9 304.05C583.01 304.23 582.95 304.46 582.78 304.57L561.22 317.73C561.16 317.77 561.09 317.78 561.02 317.78V317.79Z" fill="#F0F0F0"/>
<path d="M474.861 267.99C474.781 267.99 474.711 267.97 474.641 267.92L447.051 247.95C446.881 247.83 446.841 247.59 446.971 247.43C447.091 247.26 447.331 247.22 447.491 247.35L475.081 267.32C475.251 267.44 475.291 267.68 475.161 267.84C475.091 267.94 474.971 268 474.861 268V267.99Z" fill="#F0F0F0"/>
<path d="M484.04 273.32C483.91 273.32 483.78 273.25 483.71 273.13C483.61 272.95 483.67 272.72 483.85 272.62L504.31 260.91C504.49 260.81 504.72 260.87 504.82 261.05C504.92 261.23 504.86 261.46 504.68 261.56L484.22 273.27C484.16 273.3 484.1 273.32 484.03 273.32H484.04Z" fill="#F0F0F0"/>
<path d="M454.99 322.92C454.86 322.92 454.73 322.85 454.66 322.73C454.56 322.55 454.62 322.32 454.8 322.22L475.26 310.51C475.44 310.41 475.67 310.47 475.77 310.65C475.87 310.83 475.81 311.06 475.63 311.16L455.17 322.87C455.11 322.9 455.05 322.92 454.98 322.92H454.99Z" fill="#F0F0F0"/>
<path d="M512.571 322.92C512.441 322.92 512.311 322.85 512.241 322.73C512.141 322.55 512.201 322.32 512.381 322.22L532.841 310.51C533.021 310.41 533.251 310.47 533.351 310.65C533.451 310.83 533.391 311.06 533.211 311.16L512.751 322.87C512.691 322.9 512.631 322.92 512.561 322.92H512.571Z" fill="#F0F0F0"/>
<path d="M453.29 340.32C453.08 340.32 452.91 340.15 452.91 339.94V328.07C452.91 327.86 453.08 327.69 453.29 327.69C453.5 327.69 453.67 327.86 453.67 328.07V339.94C453.67 340.15 453.5 340.32 453.29 340.32Z" fill="#F0F0F0"/>
<path d="M208.19 359.97H175.69V373.47H208.19V359.97Z" fill="#E6E6E6"/>
<path d="M224.44 373.47H191.94V386.97H224.44V373.47Z" fill="#F5F5F5"/>
<path d="M93.6396 270.25H61.1396V283.75H93.6396V270.25Z" fill="#E6E6E6"/>
<path d="M109.89 283.75H77.3896V297.25H109.89V283.75Z" fill="#F5F5F5"/>
<path d="M674.96 273.53H642.46V287.03H674.96V273.53Z" fill="#E6E6E6"/>
<path d="M691.21 287.03H658.71V300.53H691.21V287.03Z" fill="#F5F5F5"/>
<path d="M89.3096 81.8899H56.8096V95.3899H89.3096V81.8899Z" fill="#EBEBEB"/>
<path d="M107.369 68.49H74.8691V81.99H107.369V68.49Z" fill="#FAFAFA"/>
<path d="M108.449 95.1299H75.9492V108.63H108.449V95.1299Z" fill="#F5F5F5"/>
<path d="M680.02 156.05H647.52V169.55H680.02V156.05Z" fill="#EBEBEB"/>
<path d="M698.079 142.66H665.579V156.16H698.079V142.66Z" fill="#FAFAFA"/>
<path d="M699.159 169.29H666.659V182.79H699.159V169.29Z" fill="#F5F5F5"/>
<path d="M624.45 61.75H591.95V75.25H624.45V61.75Z" fill="#F5F5F5"/>
<g opacity="0.3">
<path d="M459.39 380.16C461.54 381.26 460.94 384.21 460.76 385.39C459.45 393.87 459.04 400.13 457.26 408.56C456.71 411.16 455.76 413.79 453.93 415.72C452.09 417.64 448.84 418.49 446.75 416.85C444.48 415.07 444.72 411.63 445.17 408.78C446.1 402.89 447.04 397 447.98 391.11C448.36 388.73 448.75 386.31 449.84 384.17C450.93 382.02 452.86 380.16 455.23 379.78C455.23 379.78 458.11 379.5 459.4 380.17L459.39 380.16Z" fill="white"/>
</g>
<path opacity="0.3" d="M452.68 434.87C451.82 438.78 448.93 441.47 446.22 440.87C443.51 440.28 442.01 436.63 442.87 432.72C443.73 428.81 446.62 426.12 449.33 426.72C452.04 427.31 453.54 430.96 452.68 434.87Z" fill="white"/>
<path d="M437.49 305.95C435.42 316.53 423.96 343.05 416.47 350.8C414.32 353.03 411.45 355.23 408.43 354.55C406.27 354.06 404.7 352.2 403.63 350.26C400.8 345.17 400.34 339.16 399.42 333.41C396.77 316.8 389.75 300.91 379.27 287.76L423.21 274.8L437.5 305.95H437.49Z" fill="#407BFF"/>
<g opacity="0.3">
<path d="M437.49 305.95C435.42 316.53 423.96 343.05 416.47 350.8C414.32 353.03 411.45 355.23 408.43 354.55C406.27 354.06 404.7 352.2 403.63 350.26C400.8 345.17 400.34 339.16 399.42 333.41C396.77 316.8 389.75 300.91 379.27 287.76L423.21 274.8L437.5 305.95H437.49Z" fill="black"/>
</g>
<path d="M295.14 250.67C295.14 250.67 231.84 256.54 233.57 187.71C233.57 187.71 223.95 153.77 254.06 142.5C254.06 142.5 258.11 113.58 289.92 111.84C289.92 111.84 311.9 82.9202 351.24 90.4402C351.24 90.4402 385.7 71.3302 417.52 91.0002C417.52 91.0002 438.59 83.5002 450.16 102.01C450.16 102.01 491.23 100.85 502.8 136.72C502.8 136.72 529.41 144.82 526.52 172.58C526.52 172.58 564.07 207.39 542.09 255.4C542.09 255.4 527.68 285.96 494.7 288.27C494.7 288.27 489.49 318.35 451.32 318.35C451.32 318.35 439 321.05 428.01 317.22C415.58 312.88 409.69 298.64 414.87 286.54C414.87 286.54 361.65 292.32 343.72 290.01C325.79 287.7 300.34 279.02 295.13 250.67H295.14Z" fill="#407BFF"/>
<path d="M297 249.6C296.87 249.6 296.77 249.51 296.75 249.38C295.33 236.66 300.47 223.57 310.17 215.22C319.87 206.87 333.58 203.73 345.95 207.04C346.56 207.2 347.17 207.38 347.79 207.56C350.92 208.47 354.15 209.4 357.18 208.45C359.26 207.8 360.98 206.31 362.65 204.87C362.89 204.66 363.13 204.46 363.37 204.25C375.59 193.88 392.92 189.31 408.67 192.28C407.12 182.64 410.43 172.41 417.36 165.52C417.46 165.42 417.62 165.42 417.71 165.52C417.81 165.62 417.81 165.78 417.71 165.87C410.81 172.73 407.56 182.96 409.22 192.54C409.23 192.62 409.21 192.7 409.15 192.76C409.09 192.82 409.01 192.85 408.93 192.83C393.23 189.75 375.89 194.27 363.69 204.62C363.45 204.82 363.21 205.03 362.97 205.24C361.27 206.71 359.5 208.23 357.33 208.91C354.16 209.91 350.85 208.95 347.65 208.03C347.04 207.85 346.43 207.68 345.82 207.52C333.61 204.26 320.08 207.35 310.5 215.6C300.92 223.84 295.84 236.77 297.25 249.32C297.27 249.46 297.17 249.58 297.03 249.6H297Z" fill="black"/>
<path d="M295.829 240.82H295.799C277.249 238.75 260.669 228.51 252.529 214.11C243.479 198.11 245.789 177.09 257.889 165.21C257.989 165.11 258.149 165.11 258.239 165.21C258.339 165.31 258.329 165.47 258.239 165.56C246.289 177.28 244.019 198.04 252.959 213.85C261.029 228.12 277.459 238.26 295.849 240.31C295.989 240.33 296.089 240.45 296.069 240.59C296.059 240.72 295.949 240.81 295.819 240.81L295.829 240.82Z" fill="black"/>
<path d="M304.26 160.46C293.42 160.09 283.45 152.24 280.54 141.79C277.63 131.35 282.11 119.47 291.2 113.55C291.32 113.48 291.47 113.51 291.55 113.62C291.63 113.74 291.59 113.89 291.48 113.97C282.57 119.77 278.18 131.42 281.03 141.66C283.88 151.9 293.66 159.6 304.29 159.96C304.43 159.96 304.54 160.08 304.53 160.22C304.53 160.35 304.41 160.46 304.28 160.46H304.26Z" fill="black"/>
<path d="M357.669 159.21C357.559 159.21 357.459 159.14 357.429 159.03C357.389 158.9 357.469 158.76 357.609 158.72C368.619 155.72 373.429 144.95 373.309 135.6C373.179 125.47 365.039 116.19 355.519 115.33C351.099 114.93 346.299 116.1 340.869 118.89C340.749 118.95 340.599 118.91 340.529 118.78C340.469 118.66 340.519 118.51 340.639 118.44C346.159 115.6 351.049 114.42 355.559 114.83C365.319 115.71 373.679 125.21 373.809 135.59C373.929 145.12 369.009 156.12 357.739 159.19C357.719 159.19 357.699 159.19 357.669 159.19V159.21Z" fill="black"/>
<path d="M397.74 154.02C397.61 154.02 397.49 153.91 397.49 153.78C397.17 145.38 401.4 136.8 408.26 131.94C414.97 127.18 424.2 125.97 431.93 128.8C430.04 123.14 430.74 116.78 433.84 111.68C437.04 106.42 442.59 102.81 448.7 102.03C448.83 102.01 448.96 102.11 448.98 102.25C449 102.39 448.9 102.51 448.76 102.53C442.89 103.28 437.34 106.89 434.26 111.95C431.19 117 430.54 123.6 432.57 129.15C432.6 129.24 432.58 129.35 432.51 129.41C432.44 129.48 432.34 129.5 432.24 129.46C424.57 126.44 415.26 127.57 408.54 132.35C401.82 137.12 397.67 145.53 397.99 153.77C397.99 153.91 397.89 154.02 397.75 154.03L397.74 154.02Z" fill="black"/>
<path d="M467.86 184.29C467.72 184.29 467.61 184.17 467.62 184.03C467.82 176.68 465.01 169.41 459.92 164.1C454.83 158.79 447.69 155.68 440.33 155.57C440.19 155.57 440.08 155.45 440.08 155.32C440.08 155.18 440.19 155.07 440.33 155.07C447.82 155.18 455.09 158.35 460.27 163.75C465.45 169.16 468.31 176.55 468.11 184.04C468.11 184.18 467.99 184.28 467.86 184.28V184.29Z" fill="black"/>
<path d="M492.33 251.57C491.21 251.57 490.1 251.52 488.98 251.43C488.84 251.42 488.74 251.3 488.75 251.16C488.76 251.02 488.89 250.93 489.02 250.93C499.71 251.81 510.54 248.37 518.75 241.48C526.96 234.59 532.23 224.51 533.21 213.84C533.64 209.15 533.39 202.31 529.77 196.31C526.48 190.86 520.7 187.29 515.04 187.21C514.96 187.21 514.89 187.17 514.84 187.11C514.79 187.05 514.78 186.97 514.8 186.89C517.44 177.37 514.66 166.69 507.71 159.67C500.76 152.65 490.11 149.76 480.56 152.3C480.43 152.34 480.29 152.26 480.25 152.12C480.21 151.99 480.29 151.85 480.43 151.81C490.14 149.22 500.99 152.17 508.06 159.31C515.06 166.38 517.9 177.1 515.36 186.71C521.08 186.92 526.87 190.55 530.19 196.04C533.88 202.15 534.14 209.11 533.7 213.87C532.71 224.68 527.38 234.87 519.07 241.85C511.62 248.11 502.03 251.56 492.33 251.56V251.57Z" fill="black"/>
<path d="M400.409 114.62C400.269 114.62 400.159 114.51 400.159 114.37C400.209 108.64 402.359 102.83 406.059 98.4403C409.749 94.0503 415.109 90.9403 420.749 89.9103C420.879 89.8903 421.019 89.9803 421.039 90.1103C421.059 90.2503 420.969 90.3803 420.839 90.4003C415.309 91.4103 410.059 94.4603 406.449 98.7603C402.839 103.06 400.719 108.75 400.669 114.37C400.669 114.51 400.559 114.62 400.419 114.62H400.409Z" fill="black"/>
<path d="M389.76 259.29C386.41 259.29 383.01 259.15 379.57 258.85C364.22 257.55 348.17 253.61 327.55 246.06C327.42 246.01 327.35 245.87 327.4 245.74C327.45 245.61 327.59 245.55 327.72 245.59C348.3 253.12 364.31 257.06 379.61 258.35C399.01 259.99 417.04 256.96 431.74 249.6C448.49 241.21 461.21 226.55 465.78 210.38C465.82 210.25 465.95 210.17 466.09 210.21C466.22 210.25 466.3 210.39 466.26 210.52C461.65 226.82 448.83 241.6 431.96 250.05C419.79 256.15 405.35 259.29 389.76 259.29Z" fill="black"/>
<path d="M472.7 240.81C472.62 240.81 472.55 240.78 472.5 240.71C468.5 235.41 461.92 232.14 455.28 232.14C455.22 232.14 455.15 232.14 455.09 232.14C454.95 232.14 454.84 232.03 454.84 231.89C454.84 231.75 454.95 231.64 455.09 231.64C455.15 231.64 455.22 231.64 455.29 231.64C462.08 231.64 468.82 234.99 472.91 240.41C472.99 240.52 472.97 240.68 472.86 240.76C472.82 240.79 472.76 240.81 472.71 240.81H472.7Z" fill="black"/>
<path d="M413.619 288.61C413.539 288.61 413.459 288.57 413.409 288.49C413.339 288.37 413.369 288.22 413.489 288.15C429.519 278.02 450.509 275.84 468.279 282.46C468.409 282.51 468.479 282.65 468.429 282.78C468.379 282.91 468.239 282.98 468.109 282.93C450.489 276.36 429.659 278.52 413.769 288.57C413.729 288.6 413.679 288.61 413.639 288.61H413.619Z" fill="black"/>
<path d="M331.16 205.31C331.16 205.31 331.07 205.3 331.03 205.28C330.91 205.21 330.87 205.06 330.94 204.94C333.65 200.34 334.5 194.73 333.25 189.54C332.01 184.35 328.71 179.73 324.21 176.86C324.09 176.79 324.06 176.63 324.13 176.51C324.21 176.39 324.36 176.36 324.48 176.43C329.09 179.37 332.46 184.1 333.74 189.42C335.01 194.74 334.15 200.48 331.37 205.19C331.32 205.27 331.24 205.31 331.15 205.31H331.16Z" fill="black"/>
<path d="M353.11 114.88C352.98 114.88 352.87 114.77 352.86 114.64C352.72 111.24 353.41 107.81 354.85 104.73C354.91 104.6 355.06 104.55 355.18 104.61C355.31 104.67 355.36 104.82 355.3 104.94C353.9 107.95 353.23 111.3 353.36 114.62C353.36 114.76 353.26 114.87 353.12 114.88H353.11Z" fill="black"/>
<g opacity="0.3">
<path d="M463.43 218.57C463.91 218.16 464.39 217.75 464.87 217.34C466.98 230.07 459.13 242.92 447.97 250.57C436.81 258.22 422.86 261.47 409.12 263.24C395.34 265.02 381.23 265.47 367.56 263.06C353.89 260.65 340.63 255.23 330.51 246.36C330.51 246.36 360.69 259.35 401.89 256.45C443.09 253.54 463.42 218.57 463.42 218.57H463.43Z" fill="black"/>
</g>
<g opacity="0.3">
<path d="M302.8 223.89C309 212.78 313.98 204.1 324.24 199.83C334.5 195.56 346.68 196.23 356.41 201.58C363.05 194.42 372.05 189.47 381.66 187.7C391.27 185.93 401.44 187.33 410.2 191.65C402.24 191.54 394.23 191.44 386.4 192.88C378.57 194.32 370.86 197.43 365.15 202.98C362.7 205.36 361.73 206.8 358.56 208.06C354.18 209.79 349.59 208.73 345.1 207.3C330.03 202.47 312.74 209.56 302.8 223.89Z" fill="black"/>
</g>
<g opacity="0.3">
<path d="M294.9 166.92C291.8 163.32 281.26 161.46 273.53 165.47C265.62 168.29 261.49 177.22 260.76 185.59C260.22 191.84 261.18 198.4 264.59 203.67C268 208.94 274.13 212.66 280.38 212.14C286.63 211.62 292.42 206.19 292.34 199.91C292.29 195.58 289.74 191.08 291.53 187.14C292.77 184.4 295.78 182.86 297.33 180.29C299.78 176.22 299.67 172.47 294.9 166.92Z" fill="white"/>
</g>
<g opacity="0.3">
<path d="M296.069 128.1C294.549 129.01 293.609 130.71 293.339 132.46C293.069 134.21 293.419 136.01 294.029 137.67C294.769 139.7 295.929 141.64 297.709 142.86C299.479 144.08 301.939 144.45 303.819 143.4C305.539 142.44 306.509 140.45 306.609 138.48C306.709 136.51 306.059 134.58 305.149 132.83C304.219 131.05 302.979 129.37 301.239 128.36C299.509 127.35 297.229 127.12 295.519 128.16" fill="white"/>
</g>
<g opacity="0.3">
<path d="M386.369 217.32C384.319 214.2 380.259 212.93 376.519 213.11C372.789 213.29 369.189 218.45 365.619 219.55C353.549 223.27 349.259 216.27 329.749 219.97C325.599 220.72 321.359 221.5 317.699 223.59C314.039 225.67 310.989 229.35 310.829 233.56C310.669 237.77 314.239 242.11 318.439 241.76C323.419 241.35 325.939 235.59 330.109 232.83C333.909 230.31 338.929 230.46 343.329 231.66C347.729 232.86 351.839 234.98 356.249 236.17C363.379 238.09 371.189 237.43 377.899 234.34C381.169 232.83 384.279 230.67 386.129 227.58C387.979 224.49 388.349 220.34 386.369 217.33V217.32Z" fill="white"/>
</g>
<path opacity="0.3" d="M415.087 220.833C418.192 217.927 418.352 213.054 415.446 209.949C412.54 206.845 407.667 206.684 404.563 209.59C401.458 212.497 401.297 217.369 404.204 220.474C407.11 223.578 411.983 223.739 415.087 220.833Z" fill="white"/>
<g opacity="0.3">
<path d="M530 258.52C518.1 270.27 502.05 277.73 485.4 279.25C488.45 289.63 483.88 301.25 475.88 308.52C470.94 313.02 464.9 316.04 458.47 317.96C490.16 314.49 494.71 288.27 494.71 288.27C527.68 285.96 542.1 255.4 542.1 255.4C546.88 244.96 548.84 235.14 548.99 226.16C545.57 238.34 539.01 249.63 530.01 258.52H530Z" fill="black"/>
</g>
<g opacity="0.3">
<path d="M433.05 141.96C433.02 138.98 430.68 136.84 428.07 135.9L428.01 135.88C423.09 134.15 417.5 135.36 413.64 138.87C412.88 139.56 412.18 140.33 411.51 141.18C409.87 143.3 408.7 145.94 409.44 148.7C409.66 149.52 410.08 150.3 410.69 150.9C413.19 153.38 416.72 152.11 419.28 150.35C421.46 148.86 423.53 146.97 426.14 146.54C428.32 146.18 430.73 146.89 432.35 144.36C432.81 143.65 433.05 142.8 433.05 141.96Z" fill="white"/>
</g>
<g opacity="0.3">
<path d="M534.629 213.09C538.159 224.54 534.499 237.89 525.609 245.93C516.719 253.97 503.069 256.28 492.029 251.62C492.029 251.62 508.719 250.71 518.919 241.67C531.349 230.66 534.629 213.09 534.629 213.09Z" fill="black"/>
</g>
<g opacity="0.3">
<path d="M373.53 138.35C373.34 145.47 369.55 152.4 363.67 156.41C357.79 160.42 349.95 161.41 343.25 158.99L344.87 160.01C351.27 165.01 361.04 165.09 367.52 160.2C374 155.3 376.59 145.88 373.53 138.36V138.35Z" fill="black"/>
</g>
<path d="M540.609 130.59C547.121 130.59 552.399 125.311 552.399 118.8C552.399 112.289 547.121 107.01 540.609 107.01C534.098 107.01 528.819 112.289 528.819 118.8C528.819 125.311 534.098 130.59 540.609 130.59Z" fill="#407BFF"/>
<path d="M369.91 317.01C373.704 317.01 376.78 313.934 376.78 310.14C376.78 306.346 373.704 303.27 369.91 303.27C366.116 303.27 363.04 306.346 363.04 310.14C363.04 313.934 366.116 317.01 369.91 317.01Z" fill="#407BFF"/>
<path d="M282.51 96.6902C286.304 96.6902 289.38 93.6144 289.38 89.8202C289.38 86.026 286.304 82.9502 282.51 82.9502C278.715 82.9502 275.64 86.026 275.64 89.8202C275.64 93.6144 278.715 96.6902 282.51 96.6902Z" fill="#407BFF"/>
<path d="M521.59 108.07C521.59 111.33 518.95 113.97 515.7 113.97C512.45 113.97 509.8 111.33 509.8 108.07C509.8 104.81 512.44 102.17 515.7 102.17C518.96 102.17 521.59 104.81 521.59 108.07Z" fill="#407BFF"/>
<path d="M347.13 308.07C347.13 309.97 345.59 311.5 343.7 311.5C341.81 311.5 340.27 309.96 340.27 308.07C340.27 306.18 341.81 304.64 343.7 304.64C345.59 304.64 347.13 306.18 347.13 308.07Z" fill="#407BFF"/>
<path d="M298.049 75.23C298.049 77.13 296.509 78.66 294.619 78.66C292.729 78.66 291.189 77.12 291.189 75.23C291.189 73.34 292.729 71.8 294.619 71.8C296.509 71.8 298.049 73.34 298.049 75.23Z" fill="#407BFF"/>
<path d="M529.759 104.59C531.079 104.59 532.149 103.52 532.149 102.2C532.149 100.88 531.079 99.8101 529.759 99.8101C528.439 99.8101 527.369 100.88 527.369 102.2C527.369 103.52 528.439 104.59 529.759 104.59Z" fill="#407BFF"/>
<path d="M352.04 321.36C352.04 322.13 351.42 322.75 350.65 322.75C349.88 322.75 349.26 322.13 349.26 321.36C349.26 320.59 349.88 319.97 350.65 319.97C351.42 319.97 352.04 320.59 352.04 321.36Z" fill="#407BFF"/>
<path d="M281.979 73.4501C281.979 74.6001 281.049 75.5301 279.899 75.5301C278.749 75.5301 277.819 74.6001 277.819 73.4501C277.819 72.3001 278.749 71.3701 279.899 71.3701C281.049 71.3701 281.979 72.3001 281.979 73.4501Z" fill="#407BFF"/>
<path opacity="0.4" d="M282.51 96.6902C286.304 96.6902 289.38 93.6144 289.38 89.8202C289.38 86.026 286.304 82.9502 282.51 82.9502C278.715 82.9502 275.64 86.026 275.64 89.8202C275.64 93.6144 278.715 96.6902 282.51 96.6902Z" fill="white"/>
<path opacity="0.4" d="M298.049 75.23C298.049 77.13 296.509 78.66 294.619 78.66C292.729 78.66 291.189 77.12 291.189 75.23C291.189 73.34 292.729 71.8 294.619 71.8C296.509 71.8 298.049 73.34 298.049 75.23Z" fill="white"/>
<path opacity="0.4" d="M281.979 73.4501C281.979 74.6001 281.049 75.5301 279.899 75.5301C278.749 75.5301 277.819 74.6001 277.819 73.4501C277.819 72.3001 278.749 71.3701 279.899 71.3701C281.049 71.3701 281.979 72.3001 281.979 73.4501Z" fill="white"/>
<path opacity="0.4" d="M540.609 130.59C547.121 130.59 552.399 125.311 552.399 118.8C552.399 112.289 547.121 107.01 540.609 107.01C534.098 107.01 528.819 112.289 528.819 118.8C528.819 125.311 534.098 130.59 540.609 130.59Z" fill="white"/>
<path opacity="0.4" d="M521.59 108.07C521.59 111.33 518.95 113.97 515.7 113.97C512.45 113.97 509.8 111.33 509.8 108.07C509.8 104.81 512.44 102.17 515.7 102.17C518.96 102.17 521.59 104.81 521.59 108.07Z" fill="white"/>
<path opacity="0.4" d="M529.759 104.59C531.079 104.59 532.149 103.52 532.149 102.2C532.149 100.88 531.079 99.8101 529.759 99.8101C528.439 99.8101 527.369 100.88 527.369 102.2C527.369 103.52 528.439 104.59 529.759 104.59Z" fill="white"/>
<path opacity="0.3" d="M369.91 317.01C373.704 317.01 376.78 313.934 376.78 310.14C376.78 306.346 373.704 303.27 369.91 303.27C366.116 303.27 363.04 306.346 363.04 310.14C363.04 313.934 366.116 317.01 369.91 317.01Z" fill="white"/>
<path opacity="0.3" d="M347.13 308.07C347.13 309.97 345.59 311.5 343.7 311.5C341.81 311.5 340.27 309.96 340.27 308.07C340.27 306.18 341.81 304.64 343.7 304.64C345.59 304.64 347.13 306.18 347.13 308.07Z" fill="white"/>
<path opacity="0.3" d="M352.04 321.36C352.04 322.13 351.42 322.75 350.65 322.75C349.88 322.75 349.26 322.13 349.26 321.36C349.26 320.59 349.88 319.97 350.65 319.97C351.42 319.97 352.04 320.59 352.04 321.36Z" fill="white"/>
<path d="M631.651 172.09C627.731 182.79 638.151 188.17 644.971 203.93C651.791 219.69 635.331 238.5 610.071 238.92C584.811 239.33 584.011 215.13 587.931 197.77C591.841 180.41 583.661 177.58 585.401 164.33C587.681 146.91 612.731 133.71 622.691 149.7C631.551 148.86 635.071 162.74 631.651 172.09Z" fill="#263238"/>
<path d="M614.271 259.58L614.321 258.17C614.351 257.49 614.521 256.82 614.831 256.21L619.231 247.53L624.381 246.5C628.021 250.44 624.431 258.28 624.431 258.28V259.57C624.431 261.68 623.031 263.54 621.001 264.12L620.301 264.32C617.201 265.21 614.141 262.81 614.271 259.59V259.58Z" fill="#FFC3BD"/>
<path d="M587.98 196.63C580.89 204.04 576.21 222.81 575.59 223.26L565.7 234.01C575.73 243.59 580.64 244.51 585.94 236.89C590.8 229.9 601.99 205.69 601.99 205.69L587.98 196.63Z" fill="#407BFF"/>
<path d="M597.771 271L618.79 360.37L635.93 440.78L654.901 435.03C654.901 435.03 651.35 403.86 645.25 377.81C643.85 371.81 640.801 365.4 640.081 360.55C639.431 356.3 639.381 345.19 638.901 335.26C638.331 323.26 635.56 313.65 631.36 302.21C631.36 302.21 639.61 286.13 631.48 269.99L597.79 271H597.771Z" fill="#407BFF"/>
<path d="M615.04 275L582.46 266.34L577.11 357.94L574 442.06H590.73C590.73 442.06 596.18 411.65 597.78 384.94C598.14 378.79 598.19 368.38 598.87 363.52C599.46 359.26 600.33 354.68 602.71 345.06C605.58 333.38 606.48 318.02 605.75 305.83C605.75 305.83 618.25 292.78 615.04 274.99V275Z" fill="#407BFF"/>
<path d="M565.551 460.59C566.851 459.82 568.321 459.23 569.901 458.86C569.901 458.86 574.631 455.41 577.081 444.89L583.241 443.76C585.361 443.41 587.541 444.09 588.721 445.46C588.881 445.65 589.011 445.86 589.101 446.08C589.381 447.2 589.571 448.33 589.671 449.47C589.921 453.34 589.871 457.21 589.521 461.08H588.371L588.101 453.79C588.101 451.31 585.411 454.19 584.651 456.83C583.881 459.47 582.291 462.36 575.131 462.36C566.891 462.39 563.421 462.11 565.561 460.59H565.551Z" fill="#263238"/>
<path d="M577.95 442.07C577.95 442.07 576.85 445.93 574.59 451.26C573.66 454 572.04 456.59 569.82 458.87C569.82 458.87 575.17 459.66 577.55 456.96C579.92 454.26 583.29 444.96 588.71 445.52C588.3 444.83 587.37 442.67 586.75 442.08H577.95V442.07Z" fill="#FFC3BD"/>
<path d="M638.11 460.01C639.02 458.81 640.16 457.71 641.48 456.77C641.48 456.77 644.56 451.79 642.85 441.12L648.12 437.74C649.95 436.62 652.22 436.42 653.84 437.25C654.07 437.37 654.26 437.51 654.43 437.68C655.11 438.61 655.71 439.59 656.23 440.61C657.92 444.1 659.34 447.7 660.48 451.41L659.41 451.84L656.4 445.19C655.46 442.9 654.06 446.58 654.35 449.31C654.64 452.05 654.26 455.32 647.63 458.03C640.01 461.17 636.69 462.22 638.1 460L638.11 460.01Z" fill="#263238"/>
<path d="M642.65 438.75C642.65 438.75 642.88 442.07 642.96 447.95C643.13 450.84 642.61 453.85 641.42 456.8C641.42 456.8 646.67 455.51 647.85 452.11C649.03 448.71 648.63 438.84 653.87 437.3C653.23 436.82 652.51 436.41 651.72 436.09L642.66 438.75H642.65Z" fill="#FFC3BD"/>
<g opacity="0.3">
<path d="M587.97 204.74C586.9 206.57 586.54 207.6 585.87 209.71C585.2 211.81 584.83 215.64 584.67 217.61L588.28 218.65C588.14 213.83 588.12 209.56 587.98 204.74H587.97Z" fill="black"/>
</g>
<path d="M635.13 219.11L640.28 198.87C636.52 193.26 618.73 188.96 618.73 188.96L606.49 189.63C606.49 189.63 601.78 190.68 597.76 191.99C592.38 193.74 589.47 195.15 588.19 198.14C588.19 198.14 585.95 204.75 587.3 218.38C587.67 222.13 588.52 241.9 587.47 248.34L580.91 264.67C603.28 282.09 632.14 262.68 632.14 262.68C631.13 259.6 627.67 253.34 627.21 250.34C627.54 246.5 628.61 243.99 630.24 237.27C630.55 235.97 634.6 220.39 635.15 219.13L635.13 219.11Z" fill="#407BFF"/>
<path d="M579.161 323.84C579.161 323.84 568.471 323.95 568.471 318.98C568.471 314.01 579.661 261.22 580.891 252.22C582.131 243.21 587.981 196.63 587.981 196.63C589.941 194.31 593.831 193.14 597.751 191.98L579.171 323.84H579.161Z" fill="#407BFF"/>
<path opacity="0.8" d="M579.161 323.84C579.161 323.84 568.471 323.95 568.471 318.98C568.471 314.01 579.661 261.22 580.891 252.22C582.131 243.21 587.981 196.63 587.981 196.63C589.941 194.31 593.831 193.14 597.751 191.98L579.171 323.84H579.161Z" fill="white"/>
<path opacity="0.3" d="M586.841 235.53C586.841 235.53 578.251 230.99 577.601 229.04C576.951 227.09 576.051 221.88 582.021 219.49C584.001 218.7 587.491 220.48 587.491 220.48V234.63L586.841 235.53Z" fill="black"/>
<path d="M621.611 190.49C621.611 190.49 617.981 193.28 613.301 197.32C612.331 198.16 611.251 198.89 610.121 199.49C607.051 201.12 604.261 202.05 603.501 200.57C603.331 200.25 603.201 199.89 603.111 199.52C602.471 197.04 602.731 193.57 604.731 191.97C606.991 190.17 608.071 188.64 607.671 186.21C607.461 184.83 606.961 183.41 606.371 182.03L608.97 180.47L618.251 171.1C617.191 176.85 616.711 187.1 621.601 190.49H621.611Z" fill="#FFC3BD"/>
<path opacity="0.2" d="M607.74 186.75C610.29 185.23 613.09 182.61 612.76 179.6C612.61 178.34 612.34 177.14 612.03 176.37L606.84 183.24C607.27 184.35 607.42 185.08 607.73 186.75H607.74Z" fill="black"/>
<path d="M620.05 160.54C619.18 170.08 619.01 174.12 614.08 179.13C606.68 186.65 595.28 184.12 593.32 174.67C591.55 166.16 593.28 151.99 602.65 147.98C611.88 144.03 620.92 151.01 620.05 160.55V160.54Z" fill="#FFC3BD"/>
<path d="M607.7 163.64C607.65 164.65 607.11 165.48 606.48 165.49C605.85 165.5 605.38 164.7 605.43 163.69C605.48 162.68 606.02 161.85 606.65 161.84C607.28 161.83 607.75 162.63 607.7 163.64Z" fill="#263238"/>
<path d="M598.29 163.61C598.24 164.59 597.7 165.39 597.07 165.4C596.44 165.41 595.98 164.63 596.02 163.65C596.07 162.67 596.61 161.87 597.24 161.86C597.87 161.85 598.33 162.63 598.29 163.61Z" fill="#263238"/>
<path d="M609.69 160.13C609.57 160.14 609.44 160.11 609.35 160.02C607.88 158.66 606.23 159.14 606.21 159.14C605.96 159.21 605.72 159.07 605.66 158.82C605.6 158.57 605.76 158.31 606.01 158.23C606.1 158.2 608.17 157.6 610 159.29C610.18 159.46 610.19 159.76 610 159.96C609.91 160.06 609.8 160.11 609.69 160.12V160.13Z" fill="#263238"/>
<path d="M595.13 158.83C595.03 158.8 594.95 158.73 594.91 158.62C594.82 158.4 594.93 158.13 595.15 158.01C597.33 156.78 598.95 157.72 599.01 157.76C599.2 157.87 599.25 158.14 599.11 158.37C598.98 158.59 598.71 158.68 598.52 158.56C598.46 158.52 597.19 157.82 595.46 158.8C595.35 158.86 595.23 158.87 595.13 158.84V158.83Z" fill="#263238"/>
<path d="M600.85 163.15C600.85 163.15 599.36 166.72 597.67 168.95C597.38 169.34 597.56 169.91 598.02 170.08C599.2 170.51 600.58 170.12 600.58 170.12L600.85 163.16V163.15Z" fill="#ED847E"/>
<path d="M607.01 161.88L604.82 161.36C604.82 161.36 606.02 162.99 607.01 161.88Z" fill="#263238"/>
<path d="M597.47 161.89L595.28 161.37C595.28 161.37 596.48 163 597.47 161.89Z" fill="#263238"/>
<path d="M617.88 166.71C615.54 167.76 612.47 156.51 612.95 153.69C608.09 155.04 604.53 153.13 604.75 152.3C601.32 155.64 595.11 158.29 595.81 154.69C596.5 151.09 602.62 143.96 612.21 146.3C621.8 148.64 623.98 159.03 623.89 163.02C623.8 167.02 617.88 166.71 617.88 166.71Z" fill="#263238"/>
<path d="M622.94 168.31C621.81 170.27 619.98 171.49 618.3 171.92C615.78 172.55 614.47 168.49 615.33 165.96C616.11 163.68 618.59 162.18 621.04 162.67C623.46 163.16 624.22 166.07 622.93 168.31H622.94Z" fill="#FFC3BD"/>
<path opacity="0.2" d="M617.6 168.05H617.58C617.44 168.05 617.34 167.92 617.35 167.78C617.41 166.81 617.87 165.88 618.61 165.24C619.34 164.6 620.32 164.26 621.3 164.32C621.44 164.32 621.54 164.45 621.53 164.59C621.53 164.73 621.4 164.85 621.27 164.82C620.43 164.77 619.58 165.06 618.94 165.61C618.3 166.17 617.91 166.97 617.85 167.81C617.85 167.94 617.73 168.04 617.6 168.04V168.05Z" fill="black"/>
<path d="M601.57 172.1C602.34 172.97 603.38 174.72 603.38 174.72C603.56 174.65 603.73 174.59 603.9 174.51C606.26 173.56 607.04 172.34 607.19 171.28C607.27 170.7 607.15 170.16 607 169.74C606.83 169.25 606.6 168.95 606.6 168.95C605.65 170.2 603.52 171.25 602.35 171.77C601.87 171.99 601.55 172.11 601.55 172.11L601.57 172.1Z" fill="#263238"/>
<path d="M602.37 171.77L602.92 172.53C605.14 171.63 606.59 170.7 607.01 169.75C606.84 169.26 606.61 168.96 606.61 168.96C605.66 170.21 603.53 171.26 602.36 171.78L602.37 171.77Z" fill="white"/>
<path d="M603.91 174.52C606.27 173.57 607.05 172.35 607.2 171.29C606.41 171.64 605.49 172.16 604.79 172.86C604.25 173.4 604.01 173.98 603.91 174.52Z" fill="#DE5753"/>
<path d="M624.88 190.71C624.88 190.71 618.75 197.77 617.15 207.31C615.55 216.85 613.6 327.41 613.95 328.65C614.31 329.89 647.54 327.94 649.32 324.56C651.1 321.18 644.17 280.66 642.03 272.84C639.9 265.02 636.47 261.12 635.36 254.89C634.23 248.54 640.92 196.63 640.6 199.14C641.13 198.54 631.27 191.35 624.87 190.71H624.88Z" fill="#407BFF"/>
<path opacity="0.8" d="M624.88 190.71C624.88 190.71 618.75 197.77 617.15 207.31C615.55 216.85 613.6 327.41 613.95 328.65C614.31 329.89 647.54 327.94 649.32 324.56C651.1 321.18 644.17 280.66 642.03 272.84C639.9 265.02 636.47 261.12 635.36 254.89C634.23 248.54 640.92 196.63 640.6 199.14C641.13 198.54 631.27 191.35 624.87 190.71H624.88Z" fill="white"/>
<path opacity="0.3" d="M615.841 232.76L624.141 233.74L626.031 219.29C626.031 219.29 628.021 237.63 626.911 238.25C625.801 238.87 615.841 232.76 615.841 232.76Z" fill="black"/>
<path opacity="0.3" d="M579.48 317.2C579.48 317.2 585.7 322.4 596.56 317.2C607.42 312 606.26 302.11 606.11 298.75C605.98 295.93 598.211 236.88 598.211 236.88L595.86 233.91L587.5 234.62L579.49 317.19L579.48 317.2Z" fill="black"/>
<path d="M563.75 235.22C563.75 235.22 572.79 236.11 573.96 237.77C575.13 239.43 572.25 239.8 572.25 239.8C572.25 239.8 575.44 239.59 575.71 240.93C576.04 242.54 573.02 242.91 573.02 242.91C573.02 242.91 575.63 242.85 575.79 244.06C575.96 245.32 572.58 245.98 572.58 245.98C572.58 245.98 574.43 246.28 574.06 247.19C573.7 248.1 566.56 249.64 564.21 248.67C561.86 247.7 561.07 241.39 561.12 239.3C561.17 237.21 561.17 234.71 563.37 233.92L563.73 235.22H563.75Z" fill="#FFC3BD"/>
<path opacity="0.2" d="M572.27 239.96C572.27 239.96 572.27 239.96 572.26 239.96L566.68 240.06C566.61 240.06 566.54 239.99 566.54 239.91C566.54 239.83 566.6 239.75 566.67 239.75L572.25 239.65C572.32 239.65 572.39 239.72 572.39 239.8C572.39 239.88 572.34 239.95 572.27 239.96Z" fill="black"/>
<path opacity="0.2" d="M572.891 243.1L567.541 243.62C567.471 243.62 567.401 243.56 567.391 243.48C567.391 243.39 567.431 243.34 567.511 243.31L572.861 242.79C572.931 242.79 573.001 242.85 573.011 242.93C573.011 243.01 572.971 243.09 572.891 243.1Z" fill="black"/>
<path opacity="0.2" d="M572.43 246.17L568.46 246.67C568.39 246.67 568.32 246.62 568.31 246.53C568.3 246.45 568.35 246.37 568.43 246.36L572.4 245.86C572.47 245.86 572.54 245.91 572.55 246C572.56 246.08 572.51 246.16 572.43 246.17Z" fill="black"/>
<path d="M597.75 237.02L602 239.66L605.47 230.81L602 230.43L597.75 237.02Z" fill="#FFC3BD"/>
<path d="M601.94 226.02C600.3 223.48 596.2 221.85 593.84 220.77L594.22 223.75L597.2 225.47C595.94 225.43 585.68 219.85 583.93 220C582.18 220.15 583.39 221.53 583.39 221.53C583.39 221.53 581.12 220.22 580.35 220.98C580.15 221.18 580.01 221.96 580.95 222.72C583.07 224.43 587.71 227.8 587.71 227.8C587.45 227.6 581.43 223.86 580.45 223.42C579.18 222.84 578.28 223.22 577.97 223.97C577.53 225.04 584.83 229.93 584.99 230.35C584.99 230.35 580.88 227.39 579.53 228.03C578.19 228.67 580.67 230.68 583.2 232.03C585.52 233.27 589.74 236.3 592.22 237.33C595.27 238.6 597.61 238.77 599.88 236.65C602.15 234.54 602.78 232.15 602.78 232.15C602.78 232.15 603.59 228.58 601.94 226.04V226.02Z" fill="#FFC3BD"/>
<path d="M640.6 199.14C634.72 193.76 629.92 198.24 627.53 201.4C623.69 206.49 626.25 220.74 626.25 220.74H626.28C626.39 227.73 626.4 236.69 626.07 237.11L604.68 228.47L597.71 241.62C597.71 241.62 605.56 245.24 617.65 250.63C630.32 256.29 637.34 255.52 640.32 246.72C641.79 242.38 642.15 234.21 642.18 227.59C642.18 227.59 644.26 202.48 640.6 199.14Z" fill="#407BFF"/>
<path opacity="0.8" d="M640.6 199.14C634.72 193.76 629.92 198.24 627.53 201.4C623.69 206.49 626.25 220.74 626.25 220.74H626.28C626.39 227.73 626.4 236.69 626.07 237.11L604.68 228.47L597.71 241.62C597.71 241.62 605.56 245.24 617.65 250.63C630.32 256.29 637.34 255.52 640.32 246.72C641.79 242.38 642.15 234.21 642.18 227.59C642.18 227.59 644.26 202.48 640.6 199.14Z" fill="white"/>
<path d="M148.511 163.49C148.511 163.49 156.981 165.39 159.621 174.83C162.521 185.18 169.691 217.86 169.691 217.86H187.701L191.771 230.56C191.771 230.56 175.261 243.67 163.881 239.77C152.511 235.87 150.741 223.94 150.741 223.94L148.511 163.5V163.49Z" fill="#407BFF"/>
<path opacity="0.8" d="M148.511 163.49C148.511 163.49 156.981 165.39 159.621 174.83C162.521 185.18 169.691 217.86 169.691 217.86H187.701L191.771 230.56C191.771 230.56 175.261 243.67 163.881 239.77C152.511 235.87 150.741 223.94 150.741 223.94L148.511 163.5V163.49Z" fill="white"/>
<path opacity="0.2" d="M160.35 232.67L158.66 195.38L167.43 240.49L162.1 239.77L160.35 232.67Z" fill="black"/>
<path d="M99.6499 174.99C106.9 207.72 105.98 245.02 106.75 252.02C114.04 251.55 143.58 253.86 158.56 252.86C163.74 213.42 154.91 179.05 151.62 168.72C150.51 165.24 147.51 162.71 143.89 162.25C137.85 161.48 129.36 161.21 121.6 161.55C116.5 161.77 111.08 162.78 106.68 163.81C101.66 164.99 98.5299 169.96 99.6499 174.99Z" fill="#407BFF"/>
<path d="M134.611 132.22C141.201 133.39 142.031 132.79 142.111 128.09C142.191 123.39 144.581 115.47 141.251 113C139.131 111.43 138.261 113.87 138.261 113.87C137.781 112.8 136.601 112.2 135.551 112.62C135.411 111.64 135.251 109.13 133.431 108.41C131.611 107.69 130.001 109.35 130.001 109.35C130.001 109.35 130.131 105.5 127.531 105.87C124.931 106.24 124.411 108.92 124.411 108.92C124.411 108.92 122.911 106.73 120.881 107.6C118.851 108.46 119.251 110.97 119.251 110.97C119.251 110.97 117.091 109.94 115.491 111.11C113.891 112.28 115.061 114.16 115.061 114.16C115.061 114.16 113.601 110.42 110.831 112.49C108.331 114.36 110.591 117.28 110.591 117.28C110.591 117.28 107.851 116.84 107.191 118.22C104.941 122.93 109.171 143.1 115.921 145.66C129.061 150.7 134.591 132.22 134.591 132.22H134.611Z" fill="#263238"/>
<path d="M116.081 158.92C116.081 158.92 117.631 152.77 115.171 141.56C115.171 141.55 115.771 141.33 115.771 141.32C115.431 139.75 115.061 138.3 114.701 137.04C114.701 137 114.701 136.99 114.701 136.99L129.151 147.29C128.561 150.79 129.381 157.67 129.941 160.6C129.941 160.6 131.501 165.93 124.561 165.7C119.491 165.53 116.091 158.94 116.091 158.94L116.081 158.92Z" fill="#E9B376"/>
<path opacity="0.2" d="M129.071 152.24L120.531 149.72C121.141 152.47 123.311 155.82 129.331 156.48C129.331 156.48 128.931 153.42 129.071 152.25V152.24Z" fill="black"/>
<path d="M115.05 129.66C115.44 139.27 115.46 144.7 120.22 149.69C127.37 157.19 139.06 153.15 141.56 143.58C143.81 134.97 142.8 120.7 133.46 116.77C124.26 112.9 114.67 120.05 115.06 129.66H115.05Z" fill="#E9B376"/>
<path d="M119.411 139.47C121.661 137.35 120.231 127.23 119.131 124.33C124.621 124.85 142.321 124.83 141.651 119.94C140.981 115.05 134.541 110.9 124.011 114.33C115.221 117.2 113.041 121.56 113.001 125.14C112.921 132.48 119.411 139.47 119.411 139.47Z" fill="#263238"/>
<path d="M111.091 137.58C111.811 140.07 113.611 141.98 115.491 142.97C118.321 144.45 119.461 141.34 119.251 138.31C119.061 135.58 118.341 132.25 115.211 132.02C112.131 131.79 110.261 134.73 111.081 137.58H111.091Z" fill="#E9B376"/>
<path d="M128.741 132.72C128.721 133.7 129.221 134.5 129.871 134.51C130.511 134.51 131.051 133.73 131.071 132.74C131.091 131.76 130.591 130.96 129.941 130.95C129.301 130.95 128.761 131.73 128.741 132.72Z" fill="#263238"/>
<path d="M138.371 133.11C138.351 134.09 138.851 134.89 139.501 134.9C140.141 134.9 140.681 134.12 140.701 133.13C140.721 132.15 140.221 131.35 139.571 131.34C138.931 131.34 138.391 132.12 138.371 133.11Z" fill="#263238"/>
<path d="M135.251 132.5C135.251 132.5 138.261 137.45 139.211 139.46C137.821 140.67 135.471 140.05 135.471 140.05L135.251 132.51V132.5Z" fill="#D58745"/>
<path d="M126.43 128.04C126.58 128.1 126.75 128.09 126.89 127.98C128.54 126.75 130.14 127.3 130.16 127.31C130.4 127.4 130.66 127.27 130.75 127.03C130.84 126.79 130.71 126.53 130.48 126.44C130.4 126.41 128.39 125.71 126.34 127.24C126.14 127.39 126.09 127.68 126.25 127.88C126.3 127.95 126.36 127.99 126.43 128.02V128.04Z" fill="#263238"/>
<path d="M132.19 143.48C130.29 143.45 128.96 142.37 127.91 141.31C127.76 141.16 127.76 140.93 127.91 140.78C128.06 140.63 128.29 140.63 128.44 140.78C129.78 142.13 130.91 142.71 132.2 142.73C132.41 142.73 132.57 142.9 132.57 143.11C132.57 143.32 132.4 143.48 132.19 143.48Z" fill="#263238"/>
<path opacity="0.2" d="M117.671 138.19C117.541 138.19 117.431 138.09 117.421 137.96C117.351 137.17 117.071 136.42 116.611 135.77C116.321 135.35 115.821 134.81 115.141 134.63C114.531 134.47 113.861 134.67 113.551 135.11C113.471 135.22 113.311 135.25 113.201 135.17C113.091 135.09 113.061 134.93 113.141 134.82C113.581 134.2 114.451 133.92 115.271 134.14C116.101 134.36 116.681 134.99 117.021 135.47C117.521 136.19 117.831 137.03 117.911 137.9C117.921 138.04 117.821 138.16 117.681 138.17H117.661L117.671 138.19Z" fill="black"/>
<path d="M142.711 129.06C142.801 129.04 142.881 129 142.951 128.94C143.131 128.76 143.141 128.47 142.961 128.29C141.191 126.47 139.121 126.89 139.021 126.89C138.771 126.94 138.611 127.18 138.661 127.43C138.711 127.68 138.951 127.84 139.191 127.79C139.281 127.77 140.881 127.47 142.301 128.93C142.411 129.04 142.571 129.09 142.711 129.06Z" fill="#263238"/>
<path d="M169.971 427.15L175.081 450.75L182.961 449.39L183.731 425.36L169.971 427.15Z" fill="#E9B376"/>
<path d="M174.76 462.16L181.611 461.34C181.611 461.34 182.911 460.44 183.731 460.44C184.551 460.44 187.441 460.64 187.441 460.64L205.62 458.46C205.38 457.72 205.121 457.06 204.851 456.48C204.511 455.78 204.15 455.19 203.76 454.7C202.41 453 200.801 452.53 199.111 452.62C196.551 452.77 187.891 448.38 187.891 448.38L184.231 446.66C184.201 445.49 184.21 443.95 182.93 443.63C181.29 443.22 179.891 443.07 179.381 444.87L178.841 447.03L177.01 446.97C177.01 446.97 173.211 445.02 173.631 446.9C173.871 447.98 172.681 453.14 173.551 456.94C173.751 457.83 173.95 458.66 174.12 459.4C174.49 461.03 174.751 462.16 174.751 462.16H174.76Z" fill="#263238"/>
<g opacity="0.2">
<path d="M205.61 458.46L187.43 460.64C187.43 460.64 184.55 460.44 183.72 460.44C182.9 460.44 181.6 461.34 181.6 461.34L174.75 462.16C174.75 462.16 174.49 461.04 174.12 459.41L204.84 456.48C205.12 457.06 205.38 457.71 205.61 458.46Z" fill="white"/>
</g>
<path d="M192.111 449.89C192.021 449.82 191.881 449.82 191.791 449.9C191.381 450.25 191.051 450.72 190.851 451.28C190.751 451.58 191.191 451.8 191.291 451.5C191.461 451 191.751 450.59 192.111 450.28C192.231 450.18 192.231 449.99 192.111 449.89Z" fill="#407BFF"/>
<path d="M190.561 449.21C190.471 449.14 190.331 449.14 190.241 449.22C189.831 449.57 189.501 450.04 189.301 450.6C189.201 450.9 189.641 451.12 189.741 450.82C189.911 450.32 190.201 449.91 190.561 449.6C190.681 449.5 190.681 449.31 190.561 449.21Z" fill="#407BFF"/>
<path d="M188.981 448.59C188.891 448.52 188.751 448.52 188.661 448.6C188.251 448.95 187.921 449.42 187.721 449.98C187.621 450.28 188.061 450.5 188.161 450.2C188.331 449.7 188.621 449.29 188.981 448.98C189.101 448.88 189.101 448.69 188.981 448.59Z" fill="#407BFF"/>
<path d="M104.16 428.39L109.33 451.98L117.21 450.61L117.92 426.57L104.16 428.39Z" fill="#E9B376"/>
<path d="M107.22 463.05L114.12 462.99C114.12 462.99 115.51 462.24 116.33 462.33C117.15 462.42 119.99 462.94 119.99 462.94L138.3 462.79C138.15 462.02 137.96 461.34 137.75 460.74C137.49 460 137.2 459.38 136.87 458.85C135.72 457.01 134.17 456.36 132.48 456.27C129.91 456.13 121.8 450.81 121.8 450.81L118.35 448.7C118.45 447.53 118.64 446 117.4 445.54C115.81 444.95 114.44 444.64 113.73 446.38L112.96 448.47L111.15 448.2C111.15 448.2 107.59 445.84 107.8 447.76C107.92 448.86 106.16 453.85 106.61 457.73C106.71 458.63 106.81 459.49 106.9 460.24C107.09 461.91 107.22 463.05 107.22 463.05Z" fill="#263238"/>
<g opacity="0.2">
<path d="M138.3 462.8L119.99 462.95C119.99 462.95 117.15 462.43 116.33 462.34C115.51 462.25 114.12 463 114.12 463L107.22 463.06C107.22 463.06 107.09 461.92 106.9 460.25L137.75 460.75C137.96 461.35 138.15 462.04 138.3 462.8Z" fill="white"/>
</g>
<path d="M125.84 452.78C125.75 452.7 125.62 452.69 125.53 452.76C125.08 453.06 124.7 453.49 124.45 454.03C124.32 454.31 124.73 454.58 124.86 454.3C125.09 453.82 125.42 453.44 125.81 453.18C125.94 453.09 125.96 452.91 125.85 452.79L125.84 452.78Z" fill="#407BFF"/>
<path d="M124.369 451.94C124.279 451.86 124.149 451.85 124.049 451.92C123.599 452.23 123.219 452.65 122.969 453.19C122.839 453.47 123.249 453.74 123.379 453.46C123.609 452.98 123.939 452.6 124.329 452.34C124.459 452.25 124.479 452.07 124.369 451.95V451.94Z" fill="#407BFF"/>
<path d="M122.86 451.15C122.77 451.07 122.64 451.06 122.54 451.13C122.09 451.44 121.71 451.86 121.46 452.4C121.33 452.68 121.74 452.95 121.87 452.67C122.1 452.19 122.43 451.82 122.82 451.55C122.95 451.46 122.97 451.28 122.86 451.16V451.15Z" fill="#407BFF"/>
<path d="M187.79 441.26L168.88 444.81C168.88 444.81 153.64 384.96 149.19 357.3C147.83 348.89 144.67 336.87 141.8 324.23C138.17 308.3 133.6 291.07 129.86 277.58C125.91 263.37 122.98 253.15 122.98 253.15L155.51 251.07C155.51 251.07 174.3 321.67 177.36 348.93C180.55 377.27 187.78 441.25 187.78 441.25L187.79 441.26Z" fill="#263238"/>
<path opacity="0.2" d="M141.8 319.64C138.17 303.11 133.6 285.23 129.86 271.23L133.28 263.94C141.35 273.61 143.43 303.44 141.8 319.64Z" fill="black"/>
<path d="M140.02 252.07C140.02 252.07 138.17 327.92 135.51 354.11C132.6 382.79 122.99 445.2 122.99 445.2H102.45C102.45 445.2 103.55 378.77 106.36 351.07C106.76 296.6 105.77 254.24 105.77 254.24L140.02 252.07Z" fill="#263238"/>
<path opacity="0.4" d="M127.77 166.86C127.77 166.86 124.81 170.62 124.19 175.99C116.8 172.52 113.28 164.09 113.28 164.09L115.51 161.7C115.51 161.7 123.72 163.29 127.78 166.86H127.77Z" fill="black"/>
<path opacity="0.4" d="M128.5 166.89C128.5 166.89 131.79 169.23 135.27 174.83C140.44 171.63 138.72 162.5 138.72 162.5L134.51 161.67C134.51 161.67 132.63 163.41 128.5 166.89Z" fill="black"/>
<path d="M128.17 165.69L129.77 165.87L132.45 167.96C132.6 169.29 132.46 170.55 131.9 171.7C131.9 171.7 129.3 172.33 127.15 172.09C125.22 170.86 124.75 169.17 124.75 169.17L126.73 166.19L128.16 165.69H128.17Z" fill="#263238"/>
<path d="M127.54 165.16C127.54 165.16 125.21 170.13 123.64 175.06C116.25 171.59 111.95 163.29 111.95 163.29L116.45 157.87C116.45 157.87 123.48 161.58 127.54 165.16Z" fill="#407BFF"/>
<path d="M127.54 165.16C127.54 165.16 131.92 168.79 135.53 173.5C140.7 170.3 135.5 161.86 135.5 161.86L129.14 157.87C129.14 157.87 127.88 164.49 127.54 165.16Z" fill="#407BFF"/>
<path d="M130.661 170.65C130.661 170.65 139.681 216.24 142.841 237.38L139.671 248.85C135.041 238.78 134.421 237.86 134.421 237.86C133.681 229.24 128.181 170.82 128.181 170.82L130.661 170.65Z" fill="#263238"/>
<path d="M153.21 311.31C151.78 273.72 144.25 197.01 140.72 181.76C137.79 169.12 134.33 162.1 131.85 159.23C131.18 158.46 135.87 161.48 136.89 161.5C141.19 161.59 147.01 161.88 150.84 164.91C157.82 170.42 161.31 211.95 160.35 232.66C166.5 256.01 174.79 306.09 173.91 311.3H153.21V311.31Z" fill="#407BFF"/>
<g opacity="0.8">
<path d="M153.21 311.31C151.78 273.72 144.25 197.01 140.72 181.76C137.79 169.12 134.33 162.1 131.85 159.23C131.18 158.46 135.87 161.48 136.89 161.5C141.19 161.59 147.01 161.88 150.84 164.91C157.82 170.42 161.31 211.95 160.35 232.66C166.5 256.01 174.79 306.09 173.91 311.3H153.21V311.31Z" fill="white"/>
</g>
<path opacity="0.2" d="M139 161.4C139 161.4 149.57 182.88 150.05 187.27C150.53 191.64 148.24 205.78 148.24 205.78C148.24 205.78 151.5 191.46 151.18 188.27C150.37 180.17 138.99 161.41 138.99 161.41L139 161.4Z" fill="black"/>
<path d="M94.8399 173.28C93.8099 165.42 108.15 162.49 112.45 161.71C112.93 161.62 115.32 159.24 115.32 159.24C115.32 159.24 123.69 177.49 125.72 207.52C126.95 225.78 128.09 282.67 127.26 312.28H96.8499C97.0099 297.62 103.06 241.2 101.92 228.72C100.78 216.24 96.0199 182.32 94.8399 173.28Z" fill="#407BFF"/>
<path opacity="0.8" d="M94.8399 173.28C93.8099 165.42 108.15 162.49 112.45 161.71C112.93 161.62 115.32 159.24 115.32 159.24C115.32 159.24 123.69 177.49 125.72 207.52C126.95 225.78 128.09 282.67 127.26 312.28H96.8499C97.0099 297.62 103.06 241.2 101.92 228.72C100.78 216.24 96.0199 182.32 94.8399 173.28Z" fill="white"/>
<path opacity="0.2" d="M104.62 189.38C105.29 194.02 105.56 212.75 101.09 221.75C100.35 215.56 99.3699 208.1 98.4199 200.94L104.62 189.37V189.38Z" fill="black"/>
<path opacity="0.2" d="M111.63 163.49C111.63 163.49 111.91 187.42 113.47 191.56C115.02 195.67 123.44 207.25 123.44 207.25C123.44 207.25 114.06 195.95 112.9 192.96C109.97 185.37 111.63 163.49 111.63 163.49Z" fill="black"/>
<path opacity="0.2" d="M131.79 250.47L130.63 254.26L101.71 246.14L101.92 239.14L131.79 250.47Z" fill="black"/>
<path d="M126.331 264.61C127.911 266.85 131.721 266.92 134.921 264.75L214.721 210.6L208.911 202.33L129.391 256.29C126.091 258.53 124.711 262.29 126.341 264.61H126.331Z" fill="#263238"/>
<path opacity="0.4" d="M126.331 264.61C127.911 266.85 131.721 266.92 134.921 264.75L214.721 210.6L208.911 202.33L129.391 256.29C126.091 258.53 124.711 262.29 126.341 264.61H126.331Z" fill="white"/>
<path opacity="0.3" d="M204.171 205.54L210.111 213.72L208.441 214.85L202.581 206.62L204.171 205.54Z" fill="black"/>
<path d="M219.6 133.82C195.19 150.99 189.31 184.7 206.48 209.11C223.65 233.52 257.36 239.4 281.77 222.23C306.18 205.06 312.06 171.35 294.89 146.94C277.72 122.53 244.01 116.65 219.6 133.82ZM223.24 137.52C245.21 122.07 275.54 127.35 290.99 149.32C306.44 171.29 301.16 201.62 279.19 217.07C257.22 232.52 226.89 227.23 211.44 205.27C195.99 183.3 201.27 152.97 223.24 137.52Z" fill="#263238"/>
<g opacity="0.4">
<path d="M219.6 133.82C195.19 150.99 189.31 184.7 206.48 209.11C223.65 233.52 257.36 239.4 281.77 222.23C306.18 205.06 312.06 171.35 294.89 146.94C277.72 122.53 244.01 116.65 219.6 133.82ZM223.24 137.52C245.21 122.07 275.54 127.35 290.99 149.32C306.44 171.29 301.16 201.62 279.19 217.07C257.22 232.52 226.89 227.23 211.44 205.27C195.99 183.3 201.27 152.97 223.24 137.52Z" fill="white"/>
</g>
<path d="M201.64 218.8C201.64 218.8 192.93 212.5 190.59 213.06C188.25 213.62 190.51 216.2 190.51 216.2C190.51 216.2 187.85 213.51 186.55 214.49C185 215.66 187.38 218.35 187.38 218.35C187.38 218.35 185.12 216.25 184.02 217.19C182.89 218.17 185.36 221.4 185.36 221.4C185.36 221.4 183.48 220.22 183.1 221.31C182.71 222.4 187.83 229.35 190.67 230.34C193.52 231.33 199.16 226.35 200.75 224.45C202.34 222.56 204.3 220.34 202.97 217.92L201.63 218.79L201.64 218.8Z" fill="#E9B376"/>
<path opacity="0.2" d="M190.38 216.32H190.39L195.26 220.79C195.33 220.85 195.44 220.84 195.5 220.77C195.57 220.7 195.57 220.59 195.5 220.53L190.63 216.07C190.56 216.01 190.45 216.02 190.39 216.09C190.32 216.16 190.32 216.26 190.37 216.32H190.38Z" fill="black"/>
<path opacity="0.2" d="M187.38 218.62L191.72 223.28C191.78 223.34 191.89 223.34 191.96 223.28C192.03 223.21 192.04 223.12 191.98 223.04L187.64 218.38C187.58 218.32 187.47 218.32 187.4 218.38C187.33 218.45 187.32 218.55 187.37 218.62H187.38Z" fill="black"/>
<path opacity="0.2" d="M185.38 221.7L188.5 225.25C188.56 225.32 188.67 225.32 188.74 225.25C188.82 225.18 188.83 225.08 188.77 225.01L185.65 221.46C185.59 221.39 185.48 221.39 185.41 221.46C185.33 221.53 185.32 221.63 185.38 221.7Z" fill="black"/>
<path d="M139.27 238.82C139.27 238.82 142.46 236.47 145.7 237C148.94 237.53 151.66 237.09 154.04 237.65C156.42 238.21 153.49 239.74 151.77 240.24C150.05 240.74 148.1 241.32 148.69 242.55C149.27 243.78 158.89 250.48 159.51 252.28C160.12 254.08 158.23 253.48 158.23 253.48C158.23 253.48 160.52 255.17 160.1 256.26C159.99 256.54 159.28 257.02 158.11 256.42C155.49 255.06 150.13 251.91 150.13 251.91C150.44 252.08 156.77 256.44 157.64 257.21C158.77 258.22 158.78 259.28 158.17 259.91C157.3 260.81 149.27 255.68 148.78 255.7C148.78 255.7 153.5 258.5 153.45 260.11C153.39 261.72 150.32 260.13 147.89 258.2C145.65 256.44 140.81 253.56 138.71 251.54C136.12 249.06 134.94 246.81 136.06 243.64C137.18 240.47 139.27 238.81 139.27 238.81V238.82Z" fill="#E9B376"/>
<path opacity="0.3" d="M157.98 253.32C157.98 253.32 157.93 253.32 157.91 253.3C156.05 252 154.11 250.77 152.14 249.64C152.08 249.61 152.06 249.53 152.09 249.47C152.12 249.41 152.2 249.39 152.26 249.42C154.24 250.55 156.19 251.78 158.05 253.09C158.11 253.13 158.12 253.21 158.08 253.26C158.06 253.3 158.02 253.31 157.98 253.31V253.32Z" fill="black"/>
<path d="M140.57 239.92C140.38 239.78 136.09 236.92 136.09 236.92L131.79 246.7L137.79 248.4L140.57 239.93V239.92Z" fill="#E9B376"/>
<path d="M96.5703 168.25C96.2903 168.58 94.6703 170.73 91.7503 180.38C88.8303 190.03 77.1304 226.13 79.4704 229.12C81.8104 232.11 131.82 251.5 132.68 250.43C133.54 249.36 139 232.22 139 232.22L99.4704 217.51L107.83 186.57L96.5703 168.25Z" fill="#407BFF"/>
<path opacity="0.8" d="M96.5703 168.25C96.2903 168.58 94.6703 170.73 91.7503 180.38C88.8303 190.03 77.1304 226.13 79.4704 229.12C81.8104 232.11 131.82 251.5 132.68 250.43C133.54 249.36 139 232.22 139 232.22L99.4704 217.51L107.83 186.57L96.5703 168.25Z" fill="white"/>
<path opacity="0.3" d="M252.371 132.64C252.371 132.64 229.161 168.42 238.881 186.46C248.601 204.51 282.441 210.31 290.551 201.44C298.661 192.57 300.041 138.55 252.371 132.63V132.64Z" fill="white"/>
<path d="M225.231 148.09L224.861 147.81C222.791 146.26 223.141 143.05 225.491 141.99C226.171 141.68 226.861 141.4 227.551 141.13C231.291 139.7 233.881 144.86 230.601 147.14C230.541 147.18 230.481 147.22 230.421 147.26C230.051 147.52 229.691 147.78 229.341 148.05C228.121 148.97 226.441 149 225.221 148.08L225.231 148.09Z" fill="#E6E6E6"/>
<path d="M223.831 157.3C216.661 168.37 214.681 182.18 218.561 194.88C219.171 196.87 216.471 198.21 215.271 196.51L215.201 196.42C205.461 182.57 206.241 164.48 215.871 151.63C217.011 150.11 219.151 149.77 220.671 150.91L223.051 152.7C224.501 153.79 224.811 155.79 223.831 157.31V157.3Z" fill="#E6E6E6"/>
</svg>
