<svg xmlns="http://www.w3.org/2000/svg" width="1080" height="565" viewBox="0 0 1080 565" version="1.1"><path d="M 459 149.163 C 457.075 150.275, 444.095 157.750, 430.156 165.775 C 411.848 176.314, 404.560 181.027, 403.906 182.748 C 402.433 186.623, 402.747 249.276, 404.250 251.308 C 404.938 252.238, 416.300 259.210, 429.500 266.800 L 453.500 280.602 454 309.767 C 454.414 333.889, 454.759 339.189, 456 340.421 C 458.739 343.141, 513.464 374.232, 515.528 374.241 C 516.643 374.246, 528.160 368.119, 541.120 360.625 C 554.080 353.131, 565.546 347, 566.599 347 C 567.652 347, 579.083 353.075, 592 360.500 C 604.917 367.925, 616.481 374, 617.696 374 C 618.912 374, 627.465 369.653, 636.703 364.339 C 645.941 359.026, 658.550 351.807, 664.722 348.298 C 670.895 344.788, 676.632 340.935, 677.472 339.736 C 678.766 337.889, 678.998 332.651, 678.985 305.527 C 678.974 281.771, 678.645 272.854, 677.710 271 C 676.854 269.304, 669.083 264.250, 653.544 255.284 C 640.947 248.016, 630.021 241.450, 629.265 240.694 C 628.162 239.591, 627.905 233.966, 627.966 212.280 C 628.008 197.409, 627.627 184.175, 627.120 182.871 C 626.455 181.161, 618.089 175.829, 597.119 163.750 C 581.126 154.537, 567.341 147, 566.487 147 C 565.632 147, 554.001 153.300, 540.640 161 C 527.279 168.700, 515.918 175, 515.393 175 C 514.868 175, 503.489 168.700, 490.107 161 C 476.724 153.300, 465.038 147.032, 464.138 147.071 C 463.237 147.110, 460.925 148.051, 459 149.163 M 448.267 178.271 C 440.439 182.797, 434.026 186.763, 434.017 187.085 C 433.987 188.112, 462.469 204, 464.340 204 C 466.899 204, 494.169 188.007, 493.750 186.751 C 493.226 185.177, 466.795 170.105, 464.500 170.071 C 463.400 170.054, 456.095 173.744, 448.267 178.271 M 515.500 198.507 C 488.550 214.128, 465.637 226.930, 464.582 226.955 C 463.527 226.980, 454.527 222.303, 444.582 216.563 C 434.637 210.822, 425.712 205.824, 424.750 205.456 C 423.126 204.834, 423 206.003, 423 221.702 C 423 233.725, 423.362 239.075, 424.250 240.198 C 426.026 242.443, 462.103 263, 464.266 263 C 465.254 263, 469.085 261.265, 472.781 259.144 C 476.476 257.023, 498.707 244.198, 522.183 230.644 C 545.658 217.090, 565.601 206, 566.500 206 C 567.399 206, 576.705 210.950, 587.179 217 C 597.653 223.050, 606.623 228, 607.112 228 C 607.600 228, 608 220.675, 608 211.723 C 608 198.888, 607.683 194.993, 606.503 193.308 C 604.632 190.637, 569.030 169.981, 566.418 170.052 C 565.363 170.080, 542.450 182.885, 515.500 198.507 M 551 236.933 C 543.575 241.241, 537.500 245.332, 537.500 246.025 C 537.500 247.565, 563.746 262.968, 566.403 262.986 C 567.450 262.994, 574.725 259.289, 582.571 254.753 C 592.692 248.902, 596.558 246.172, 595.881 245.357 C 594.132 243.249, 568.400 228.999, 566.435 229.050 C 565.371 229.078, 558.425 232.625, 551 236.933 M 509.891 260.888 C 497.478 267.537, 485.515 274.839, 485.722 275.640 C 485.844 276.113, 492.355 280.212, 500.191 284.748 C 510.440 290.681, 515.008 292.815, 516.469 292.351 C 520.706 291.007, 546.085 275.687, 545.311 274.941 C 544.197 273.868, 516.649 258.008, 515.891 258.003 C 515.556 258.002, 512.856 259.299, 509.891 260.888 M 613.961 259.822 C 606.530 263.733, 580.786 278.385, 575.462 281.734 C 574.383 282.413, 569.450 285.269, 564.500 288.081 C 559.550 290.893, 550.550 296.058, 544.500 299.558 C 523.982 311.429, 517.197 315, 515.158 315 C 514.040 315, 504.947 310.275, 494.953 304.500 C 484.958 298.725, 476.155 294, 475.391 294 C 474.258 294, 474 297.128, 474 310.845 C 474 325.642, 474.213 327.875, 475.750 329.211 C 479.399 332.383, 513.311 351.250, 515.363 351.250 C 516.545 351.250, 523.585 347.751, 531.006 343.475 C 538.428 339.199, 546.189 334.755, 548.253 333.600 C 550.317 332.445, 564.041 324.525, 578.751 316 C 593.461 307.475, 606.503 299.968, 607.734 299.317 C 608.964 298.666, 610.978 297.428, 612.208 296.567 C 616.479 293.575, 619.654 294.640, 637.681 305.105 C 647.254 310.663, 655.967 315.440, 657.043 315.722 C 658.927 316.214, 659 315.620, 659 299.727 C 659 285.466, 658.762 282.939, 657.250 281.144 C 655.696 279.300, 619.619 258, 618.049 258 C 617.704 258, 615.865 258.820, 613.961 259.822 M 602.267 325.271 C 594.439 329.797, 588.035 333.950, 588.036 334.500 C 588.040 335.931, 615.033 351.250, 617.550 351.250 C 619.949 351.250, 647.173 335.888, 647.328 334.447 C 647.438 333.428, 619.366 316.986, 617.576 317.021 C 616.984 317.032, 610.095 320.744, 602.267 325.271" stroke="none" fill="#000000" fill-rule="evenodd"/></svg>